<svg width="908" height="185" viewBox="0 0 908 185" fill="none" xmlns="http://www.w3.org/2000/svg">
<g clip-path="url(#clip0_826_9560)">
<path d="M0 35C0 15.67 15.67 0 35 0H904.536C907.089 0 908.475 2.98672 906.827 4.93674L836.299 88.3677C829.649 96.2345 819.871 100.772 809.57 100.772H658.947H496.624C481.626 100.772 468.295 110.328 463.478 124.532L451.03 161.24C446.213 175.444 432.882 185 417.884 185H35C15.67 185 0 169.33 0 150V35Z" fill="white"/>
<rect x="7" y="110" width="436" height="65" rx="32.5" fill="#8AA6AA"/>
<path d="M188.408 151H173.4V132.24H188.408V134.956H176.424V140.22H187.988V142.908H176.424V148.284H188.408V151ZM193.059 151H189.447L195.439 144.112V143.944L189.447 137.084H193.115L197.735 142.348H197.903L202.467 137.084H206.107L200.115 143.888V144.056L206.107 151H202.439L197.819 145.68H197.623L193.059 151ZM210.604 155.76H207.58V137.084H210.352V140.948H210.604C211.164 138.372 213.124 136.804 216.4 136.804C220.712 136.804 223.148 139.744 223.148 144.056C223.148 148.368 220.768 151.28 216.428 151.28C213.292 151.28 211.276 149.628 210.716 147.08H210.604V155.76ZM210.604 144.28C210.604 147.136 212.424 148.536 215.392 148.536C218.388 148.536 220.124 147.388 220.124 144.056C220.124 140.696 218.36 139.576 215.448 139.576C212.34 139.576 210.604 141.032 210.604 144.028V144.28ZM228.268 151H225.244V132.24H228.268V151ZM238.18 151.28C233.56 151.28 230.452 148.34 230.452 144.056C230.452 139.716 233.56 136.804 238.18 136.804C242.828 136.804 245.936 139.716 245.936 144.056C245.936 148.34 242.828 151.28 238.18 151.28ZM238.18 148.592C241.568 148.592 242.968 146.996 242.968 144.056C242.968 141.088 241.568 139.464 238.18 139.464C234.82 139.464 233.42 141.088 233.42 144.056C233.42 146.996 234.82 148.592 238.18 148.592ZM251.154 151H248.13V137.084H250.902V140.836H251.098C251.518 138.596 253.03 136.804 255.886 136.804C259.05 136.804 260.422 139.072 260.422 141.704V143.524H257.426V142.292C257.426 140.304 256.586 139.38 254.514 139.38C252.134 139.38 251.154 140.696 251.154 143.188V151ZM269.322 151.28C264.758 151.28 261.762 148.704 261.762 144.056C261.762 139.716 264.73 136.804 269.266 136.804C273.578 136.804 276.518 139.184 276.518 143.412C276.518 143.916 276.49 144.308 276.406 144.728H264.59C264.702 147.416 266.018 148.844 269.238 148.844C272.15 148.844 273.354 147.892 273.354 146.24V146.016H276.378V146.268C276.378 149.236 273.466 151.28 269.322 151.28ZM269.21 139.184C266.13 139.184 264.786 140.556 264.618 143.048H273.662V142.992C273.662 140.416 272.178 139.184 269.21 139.184Z" fill="white"/>
</g>
<defs>
<clipPath id="clip0_826_9560">
<rect width="908" height="185" fill="white"/>
</clipPath>
</defs>
</svg>
