<svg width="32" height="32" viewBox="0 0 32 32" fill="none" xmlns="http://www.w3.org/2000/svg">
<path d="M14 3C13.48 3 12.94 3.18 12.56 3.56C12.18 3.94 12 4.48 12 5V6H3V26H14.2C14.07 25.36 14 24.69 14 24H5V17.44C5.59 17.78 6.27 18 7 18H16.01C16.57 17.24 17.25 16.56 18.01 16H7C5.81 16 5 15.19 5 14V8H27V14C27 14.16 26.99 14.31 26.96 14.45C27.68 14.67 28.36 14.97 29 15.34V6H20V5C20 4.48 19.82 3.94 19.44 3.56C19.06 3.18 18.52 3 18 3H14ZM14 5H18V6H14V5ZM9 12V15H11V12H9ZM21 12V14.46C21.6512 14.2565 22.3213 14.1191 23 14.05V12H21ZM24 16C19.59 16 16 19.59 16 24C16 28.41 19.59 32 24 32C28.41 32 32 28.41 32 24C32 19.59 28.41 16 24 16ZM24 18C27.32 18 30 20.68 30 24C30 27.32 27.32 30 24 30C20.68 30 18 27.32 18 24C18 20.68 20.68 18 24 18ZM23 19V25H28V23H25V19H23Z" fill="#8AA6AA"/>
</svg>
