<svg width="32" height="32" viewBox="0 0 32 32" fill="none" xmlns="http://www.w3.org/2000/svg">
<path d="M21.6581 17.173L20.934 16.4829L21.659 17.1721L21.6581 17.173ZM27.7081 22.3877L28.4322 23.0778L27.7072 22.3886L27.7081 22.3877ZM7.00308 7.79772C6.99764 7.66648 6.96639 7.5376 6.91114 7.41843C6.85588 7.29927 6.77769 7.19215 6.68104 7.1032C6.58438 7.01425 6.47116 6.94522 6.34782 6.90003C6.22449 6.85483 6.09346 6.83438 5.96222 6.83983C5.83098 6.84528 5.7021 6.87652 5.58293 6.93177C5.46377 6.98703 5.35665 7.06522 5.26771 7.16187C5.17876 7.25852 5.10972 7.37175 5.06453 7.49509C5.01934 7.61842 4.99888 7.74945 5.00433 7.88069L7.00214 7.79866L7.00308 7.79772ZM8.16745 2.89794C8.07688 2.99309 8.00594 3.10515 7.95868 3.22771C7.91142 3.35028 7.88876 3.48095 7.892 3.61227C7.89524 3.7436 7.92431 3.87299 7.97756 3.99308C8.03081 4.11316 8.10719 4.22159 8.20234 4.31216C8.29749 4.40272 8.40954 4.47367 8.53211 4.52093C8.65467 4.56819 8.78534 4.59085 8.91667 4.58761C9.04799 4.58437 9.17739 4.55529 9.29747 4.50205C9.41756 4.4488 9.52598 4.37242 9.61655 4.27727L8.16745 2.89794ZM15.4158 23.9075C15.5274 23.9807 15.6525 24.0308 15.7837 24.0549C15.915 24.079 16.0497 24.0766 16.18 24.0478C16.3103 24.019 16.4335 23.9644 16.5424 23.8873C16.6513 23.8101 16.7437 23.7119 16.814 23.5985C16.8844 23.4851 16.9313 23.3588 16.9521 23.227C16.9728 23.0952 16.967 22.9605 16.935 22.831C16.9029 22.7015 16.8452 22.5796 16.7653 22.4727C16.6854 22.3659 16.585 22.276 16.4698 22.2086L15.4158 23.9075ZM21.0085 24.0451C20.8796 24.0196 20.747 24.0198 20.6181 24.0455C20.4893 24.0713 20.3668 24.1222 20.2576 24.1953C20.1485 24.2684 20.0547 24.3623 19.9819 24.4716C19.909 24.5809 19.8583 24.7035 19.8328 24.8324C19.8073 24.9613 19.8075 25.0939 19.8332 25.2228C19.859 25.3516 19.9099 25.4741 19.983 25.5833C20.0561 25.6925 20.15 25.7862 20.2593 25.859C20.3686 25.9319 20.4912 25.9826 20.6201 26.0081L21.0085 24.0451ZM21.8042 18.4713L22.3831 17.8622L20.934 16.4829L20.3551 17.0919L21.8042 18.4713ZM24.2075 17.5841L26.5899 18.937L27.5761 17.1966L25.1946 15.8446L24.2075 17.5841ZM26.9831 21.6985L25.1757 23.6001L26.6248 24.9776L28.4312 23.0769L26.9812 21.6985L26.9831 21.6985ZM12.6307 19.0237C7.83935 13.9722 7.07945 9.67862 7.00308 7.79772L5.00433 7.88069C5.10049 10.217 6.0367 14.9791 11.1797 20.3993L12.6307 19.0237ZM14.4748 10.744L14.8397 10.3603L13.3897 8.98189L13.0239 9.36655L14.4748 10.744ZM15.1735 5.56515L13.6159 3.34389L11.9773 4.49223L13.5358 6.71255L15.1735 5.56515ZM13.7498 10.0548L13.0239 9.36655L13.0088 9.38164L12.9918 9.40238C12.9424 9.45841 12.8977 9.51831 12.8579 9.58152C12.7742 9.71236 12.7052 9.85213 12.6524 9.99824C12.4975 10.4468 12.4547 10.9266 12.5279 11.3955C12.6816 12.5353 13.4095 14.0514 15.3102 16.0558L16.763 14.6783C14.999 12.8201 14.5842 11.6774 14.5107 11.1287C14.4739 10.8637 14.5163 10.727 14.5305 10.6846C14.539 10.6629 14.5446 10.6573 14.5371 10.6686C14.5256 10.6857 14.5127 10.7018 14.4984 10.7167L14.4871 10.7299L14.4758 10.7412C14.4748 10.7421 14.4739 10.7431 13.7489 10.0539L13.7498 10.0548ZM15.3102 16.0558C17.2062 18.0536 18.659 18.8427 19.7838 19.0115C20.3608 19.0982 20.8275 19.0181 21.182 18.8748C21.3786 18.7955 21.5612 18.6854 21.7232 18.5486C21.7485 18.5262 21.773 18.503 21.7967 18.4788L21.8024 18.4731C21.8033 18.4722 21.8042 18.4713 21.0792 17.7821C20.3551 17.0919 20.3551 17.0919 20.357 17.09L20.3617 17.0853C20.3837 17.0632 20.407 17.0424 20.4315 17.0231C20.4447 17.0137 20.4457 17.0146 20.4325 17.0203C20.3187 17.0555 20.1978 17.06 20.0817 17.0335C19.6009 16.9618 18.5318 16.5432 16.7621 14.6774L15.3102 16.0558ZM13.6159 3.34389C12.3234 1.49881 9.72969 1.25463 8.16745 2.89794L9.61749 4.27633C10.2793 3.57865 11.3862 3.64842 11.9773 4.49223L13.6159 3.34389ZM25.1757 23.6001C24.8222 23.9726 24.4582 24.1668 24.1151 24.2064L24.3347 26.1929C25.2879 26.0882 26.0591 25.5716 26.6248 24.9776L25.1757 23.6001ZM14.8397 10.3603C16.0738 9.06203 16.2002 7.03122 15.1735 5.56515L13.5358 6.71255C14.0298 7.41777 13.9516 8.3898 13.3897 8.98189L14.8397 10.3603ZM26.5899 18.937C27.5478 19.4801 27.7609 20.8811 26.9821 21.6994L28.4322 23.0778C30.0944 21.3289 29.6795 18.3892 27.5761 17.1966L26.5899 18.937ZM22.3841 17.8613C22.8706 17.3484 23.605 17.2418 24.2075 17.5841L25.1946 15.8446C24.5161 15.4568 23.7257 15.308 22.9529 15.424C22.18 15.54 21.4688 15.913 20.934 16.4829L22.3841 17.8613ZM16.4727 22.2076C15.2517 21.4487 13.9554 20.42 12.6307 19.0237L11.1797 20.3993C12.6175 21.9125 14.043 23.0552 15.4158 23.9075L16.4708 22.2076L16.4727 22.2076ZM24.1141 24.2054C23.0768 24.3097 22.0296 24.2556 21.0085 24.0451L20.6191 26.0071C21.8408 26.2568 23.0934 26.3191 24.3338 26.1919L24.1141 24.2054Z" fill="#8AA6AA"/>
</svg>
