<svg width="32" height="32" viewBox="0 0 32 32" fill="none" xmlns="http://www.w3.org/2000/svg">
<path d="M27.9997 25.3333H30.6663V28H1.33301V25.3333H3.99967V5.33333C3.99967 4.97971 4.14015 4.64057 4.3902 4.39052C4.64025 4.14048 4.97939 4 5.33301 4H18.6663C19.02 4 19.3591 4.14048 19.6091 4.39052C19.8592 4.64057 19.9997 4.97971 19.9997 5.33333V25.3333H25.333V14.6667H22.6663V12H26.6663C27.02 12 27.3591 12.1405 27.6092 12.3905C27.8592 12.6406 27.9997 12.9797 27.9997 13.3333V25.3333ZM6.66634 6.66667V25.3333H17.333V6.66667H6.66634ZM9.33301 14.6667H14.6663V17.3333H9.33301V14.6667ZM9.33301 9.33333H14.6663V12H9.33301V9.33333Z" fill="#8AA6AA"/>
</svg>
