<svg width="21" height="21" viewBox="0 0 21 21" fill="none" xmlns="http://www.w3.org/2000/svg">
<path d="M17.6945 16.4944V18.1663C17.6945 18.691 17.486 19.1943 17.1147 19.5653C16.7434 19.9364 16.2399 20.1449 15.7148 20.1449H5.81641C5.29136 20.1449 4.78782 19.9364 4.41656 19.5653C4.04529 19.1943 3.83672 18.691 3.83672 18.1663V14.506C3.38139 14.3279 2.79738 14.2092 1.85703 14.2092C1.59451 14.2092 1.34274 14.105 1.15711 13.9195C0.971474 13.7339 0.867188 13.4823 0.867188 13.2199C0.867188 12.9576 0.971474 12.7059 1.15711 12.5204C1.34274 12.3349 1.59451 12.2307 1.85703 12.2307C2.6687 12.2307 3.3121 12.3098 3.83672 12.4384V10.5489C3.38139 10.3708 2.79738 10.2521 1.85703 10.2521C1.59451 10.2521 1.34274 10.1479 1.15711 9.96236C0.971474 9.77684 0.867188 9.52521 0.867188 9.26284C0.867188 9.00047 0.971474 8.74884 1.15711 8.56332C1.34274 8.37779 1.59451 8.27357 1.85703 8.27357C2.6687 8.27357 3.3121 8.35271 3.83672 8.48131V6.5918C3.38139 6.41373 2.79738 6.29502 1.85703 6.29502C1.59451 6.29502 1.34274 6.19079 1.15711 6.00527C0.971474 5.81974 0.867188 5.56812 0.867188 5.30574C0.867188 5.04337 0.971474 4.79175 1.15711 4.60622C1.34274 4.4207 1.59451 4.31647 1.85703 4.31647C2.6687 4.31647 3.3121 4.39561 3.83672 4.52422V2.33792C3.83672 1.81318 4.04529 1.30993 4.41656 0.938878C4.78782 0.567828 5.29136 0.359375 5.81641 0.359375H15.7148C16.2399 0.359375 16.7434 0.567828 17.1147 0.938878C17.486 1.30993 17.6945 1.81318 17.6945 2.33792V4.47475C19.4565 4.78143 20.2087 5.43435 20.377 5.59263C20.763 5.97845 20.763 6.61159 20.377 6.9974C19.991 7.38322 19.4763 7.37333 18.9714 6.9974C18.9714 6.9974 17.942 6.29502 15.7148 6.29502C14.4676 6.29502 13.6461 6.70062 12.6958 7.18536C11.6664 7.68989 10.5083 8.27357 8.78594 8.27357C8.42959 8.27357 8.10295 8.27357 7.79609 8.234V6.24555C8.09305 6.29502 8.4197 6.29502 8.78594 6.29502C10.0331 6.29502 10.8547 5.88942 11.805 5.41456C12.8344 4.90014 14.0024 4.31647 15.7148 4.31647V2.33792H5.81641V18.1663H15.7148V16.1878C17.1996 16.1878 17.6648 16.4746 17.6945 16.4944ZM15.7148 8.27357C14.0024 8.27357 12.8344 8.85724 11.805 9.37166C10.8547 9.84651 10.0331 10.2521 8.78594 10.2521C8.4197 10.2521 8.09305 10.2521 7.79609 10.2027V12.1911C8.10295 12.2307 8.42959 12.2307 8.78594 12.2307C10.5083 12.2307 11.6664 11.647 12.6958 11.1425C13.6461 10.6676 14.4676 10.2521 15.7148 10.2521C17.942 10.2521 18.9714 10.9545 18.9714 10.9545C19.4763 11.3403 19.991 11.3403 20.377 10.9545C20.763 10.5687 20.763 9.94544 20.377 9.54973C20.1691 9.34198 18.9318 8.27357 15.7148 8.27357ZM15.7148 12.2307C14.0024 12.2307 12.8344 12.8143 11.805 13.3288C10.8547 13.8036 10.0331 14.2092 8.78594 14.2092C8.4197 14.2092 8.09305 14.2092 7.79609 14.1597V16.1482C8.10295 16.1878 8.42959 16.1878 8.78594 16.1878C10.5083 16.1878 11.6664 15.6041 12.6958 15.0996C13.6461 14.6247 14.4676 14.2092 15.7148 14.2092C17.942 14.2092 18.9714 14.9116 18.9714 14.9116C19.4763 15.2974 19.991 15.2974 20.377 14.9116C20.763 14.5258 20.763 13.9025 20.377 13.5068C20.1691 13.2991 18.9318 12.2307 15.7148 12.2307Z" fill="white"/>
</svg>
