<svg width="19" height="20" viewBox="0 0 19 20" fill="none" xmlns="http://www.w3.org/2000/svg">
<path d="M15.9464 15.2292C16.4129 15.4584 16.8335 15.7397 17.2081 16.073C17.5828 16.4063 17.9009 16.7778 18.1624 17.1875C18.4239 17.5973 18.6289 18.0417 18.7773 18.5209C18.9258 19 19 19.4931 19 20H17.6429C17.6429 19.4514 17.5368 18.934 17.3248 18.4479C17.1127 17.9618 16.8229 17.5382 16.4554 17.1771C16.0878 16.816 15.6531 16.5278 15.1512 16.3126C14.6494 16.0973 14.1228 15.9931 13.5714 16.0001C13.006 16.0001 12.4794 16.1042 11.9916 16.3126C11.5039 16.5209 11.0727 16.8056 10.6981 17.1667C10.3235 17.5278 10.0301 17.9549 9.81808 18.4479C9.60603 18.941 9.5 19.4583 9.5 20H8.14286C8.14286 19.4931 8.21354 19 8.35491 18.5209C8.49628 18.0417 8.70126 17.5973 8.96987 17.1875C9.23847 16.7778 9.56008 16.4063 9.93471 16.073C10.3093 15.7397 10.7299 15.4584 11.1964 15.2292C10.6663 14.8543 10.2528 14.3855 9.95591 13.823C9.65904 13.2605 9.50707 12.6529 9.5 12.0001C9.5 11.4515 9.39397 10.9342 9.18192 10.4481C8.96987 9.96197 8.68006 9.53837 8.3125 9.17726C7.94494 8.81615 7.51023 8.52796 7.00837 8.31269C6.50651 8.09742 5.97991 7.99325 5.42857 8.0002C4.8631 8.0002 4.3365 8.10436 3.84877 8.31269C3.36105 8.52102 2.92987 8.80574 2.55525 9.16684C2.18062 9.52795 1.88728 9.95502 1.67522 10.4481C1.46317 10.9411 1.35714 11.4585 1.35714 12.0001H0C0 11.4932 0.0706845 11.0001 0.212054 10.521C0.353423 10.0418 0.558408 9.59739 0.827009 9.18768C1.09561 8.77796 1.41722 8.40644 1.79185 8.07311C2.16648 7.73978 2.58705 7.45854 3.05357 7.22937C2.52344 6.85438 2.10993 6.38564 1.81306 5.82315C1.51618 5.26066 1.36421 4.65303 1.35714 4.00026C1.35714 3.45166 1.46317 2.93431 1.67522 2.4482C1.88728 1.9621 2.17708 1.53849 2.54464 1.17739C2.9122 0.816284 3.34338 0.528095 3.83817 0.31282C4.33296 0.0975462 4.8631 -0.00661882 5.42857 0.000325516C5.98698 0.000325516 6.51358 0.10449 7.00837 0.31282C7.50316 0.52115 7.93434 0.805868 8.3019 1.16697C8.66946 1.52808 8.9628 1.95515 9.18192 2.4482C9.40104 2.94125 9.50707 3.4586 9.5 4.00026C9.5 4.65303 9.35156 5.26066 9.05469 5.82315C8.75781 6.38564 8.34077 6.85438 7.80357 7.22937C8.34077 7.49326 8.82143 7.83353 9.24553 8.25019C9.66964 8.66685 10.016 9.13907 10.2846 9.66683C10.6663 9.14601 11.1434 8.73977 11.716 8.4481C12.2885 8.15644 12.907 8.00714 13.5714 8.0002C14.1298 8.0002 14.6564 8.10436 15.1512 8.31269C15.646 8.52102 16.0772 8.80574 16.4448 9.16684C16.8123 9.52795 17.1057 9.95502 17.3248 10.4481C17.5439 10.9411 17.6499 11.4585 17.6429 12.0001C17.6429 12.6529 17.4944 13.2605 17.1975 13.823C16.9007 14.3855 16.4836 14.8543 15.9464 15.2292ZM5.42857 6.66688C5.8032 6.66688 6.15309 6.59744 6.47824 6.45855C6.80339 6.31967 7.09319 6.1287 7.34766 5.88565C7.60212 5.64259 7.7965 5.36135 7.9308 5.04191C8.0651 4.72247 8.13579 4.37525 8.14286 4.00026C8.14286 3.63221 8.07217 3.28847 7.9308 2.96903C7.78943 2.64959 7.59505 2.36487 7.34766 2.11487C7.10026 1.86488 6.81399 1.67391 6.48884 1.54197C6.16369 1.41002 5.81027 1.34058 5.42857 1.33364C5.05394 1.33364 4.70405 1.40308 4.37891 1.54197C4.05376 1.68085 3.76395 1.87182 3.50949 2.11487C3.25502 2.35793 3.06064 2.63917 2.92634 2.95861C2.79204 3.27805 2.72135 3.62527 2.71429 4.00026C2.71429 4.36831 2.78497 4.71205 2.92634 5.03149C3.06771 5.35093 3.26209 5.63565 3.50949 5.88565C3.75688 6.13564 4.04315 6.32661 4.3683 6.45855C4.69345 6.5905 5.04688 6.65994 5.42857 6.66688ZM13.5714 14.6668C13.9461 14.6668 14.2959 14.5973 14.6211 14.4584C14.9462 14.3195 15.236 14.1286 15.4905 13.8855C15.745 13.6425 15.9394 13.3612 16.0737 13.0418C16.208 12.7223 16.2786 12.3751 16.2857 12.0001C16.2857 11.6321 16.215 11.2883 16.0737 10.9689C15.9323 10.6495 15.7379 10.3647 15.4905 10.1147C15.2431 9.86475 14.9568 9.67378 14.6317 9.54184C14.3065 9.40989 13.9531 9.34045 13.5714 9.33351C13.1968 9.33351 12.8469 9.40295 12.5218 9.54184C12.1966 9.68072 11.9068 9.87169 11.6523 10.1147C11.3979 10.3578 11.2035 10.639 11.0692 10.9585C10.9349 11.2779 10.8642 11.6251 10.8571 12.0001C10.8571 12.3682 10.9278 12.7119 11.0692 13.0314C11.2106 13.3508 11.4049 13.6355 11.6523 13.8855C11.8997 14.1355 12.186 14.3265 12.5112 14.4584C12.8363 14.5904 13.1897 14.6598 13.5714 14.6668ZM14.9286 2.66695H10.8571V1.33364H16.2857V6.66688H14.9286V2.66695Z" fill="#111111"/>
</svg>
