<svg width="36" height="36" viewBox="0 0 36 36" fill="none" xmlns="http://www.w3.org/2000/svg">
<path d="M28.2279 27.2022V29.6667C28.2279 30.4403 27.9207 31.1822 27.3737 31.7291C26.8267 32.2761 26.0848 32.5834 25.3113 32.5834H10.7279C9.9544 32.5834 9.21253 32.2761 8.66555 31.7291C8.11857 31.1822 7.81128 30.4403 7.81128 29.6667V24.2709C7.14045 24.0084 6.28003 23.8334 4.89461 23.8334C4.50784 23.8334 4.13691 23.6798 3.86342 23.4063C3.58992 23.1328 3.43628 22.7619 3.43628 22.3751C3.43628 21.9883 3.58992 21.6174 3.86342 21.3439C4.13691 21.0704 4.50784 20.9167 4.89461 20.9167C6.09045 20.9167 7.03836 21.0334 7.81128 21.223V18.4376C7.14045 18.1751 6.28003 18.0001 4.89461 18.0001C4.50784 18.0001 4.13691 17.8464 3.86342 17.5729C3.58992 17.2995 3.43628 16.9285 3.43628 16.5417C3.43628 16.155 3.58992 15.784 3.86342 15.5106C4.13691 15.2371 4.50784 15.0834 4.89461 15.0834C6.09045 15.0834 7.03836 15.2001 7.81128 15.3897V12.6042C7.14045 12.3417 6.28003 12.1667 4.89461 12.1667C4.50784 12.1667 4.13691 12.0131 3.86342 11.7396C3.58992 11.4661 3.43628 11.0952 3.43628 10.7084C3.43628 10.3216 3.58992 9.95071 3.86342 9.67722C4.13691 9.40373 4.50784 9.25008 4.89461 9.25008C6.09045 9.25008 7.03836 9.36675 7.81128 9.55633V6.33341C7.81128 5.55987 8.11857 4.818 8.66555 4.27102C9.21253 3.72404 9.9544 3.41675 10.7279 3.41675H25.3113C26.0848 3.41675 26.8267 3.72404 27.3737 4.27102C27.9207 4.818 28.2279 5.55987 28.2279 6.33341V9.48341C30.8238 9.9355 31.9321 10.898 32.18 11.1313C32.7488 11.7001 32.7488 12.6334 32.18 13.2022C31.6113 13.7709 30.8529 13.7563 30.1092 13.2022C30.1092 13.2022 28.5925 12.1667 25.3113 12.1667C23.4738 12.1667 22.2634 12.7647 20.8634 13.4792C19.3467 14.223 17.6404 15.0834 15.1029 15.0834C14.5779 15.0834 14.0967 15.0834 13.6446 15.0251V12.0938C14.0821 12.1667 14.5634 12.1667 15.1029 12.1667C16.9404 12.1667 18.1509 11.5688 19.5509 10.8688C21.0675 10.1105 22.7884 9.25008 25.3113 9.25008V6.33341H10.7279V29.6667H25.3113V26.7501C27.4988 26.7501 28.1842 27.173 28.2279 27.2022ZM25.3113 15.0834C22.7884 15.0834 21.0675 15.9438 19.5509 16.7022C18.1509 17.4022 16.9404 18.0001 15.1029 18.0001C14.5634 18.0001 14.0821 18.0001 13.6446 17.9272V20.8584C14.0967 20.9167 14.5779 20.9167 15.1029 20.9167C17.6404 20.9167 19.3467 20.0563 20.8634 19.3126C22.2634 18.6126 23.4738 18.0001 25.3113 18.0001C28.5925 18.0001 30.1092 19.0355 30.1092 19.0355C30.8529 19.6042 31.6113 19.6042 32.18 19.0355C32.7488 18.4667 32.7488 17.548 32.18 16.9647C31.8738 16.6584 30.0509 15.0834 25.3113 15.0834ZM25.3113 20.9167C22.7884 20.9167 21.0675 21.7772 19.5509 22.5355C18.1509 23.2355 16.9404 23.8334 15.1029 23.8334C14.5634 23.8334 14.0821 23.8334 13.6446 23.7605V26.6917C14.0967 26.7501 14.5779 26.7501 15.1029 26.7501C17.6404 26.7501 19.3467 25.8897 20.8634 25.1459C22.2634 24.4459 23.4738 23.8334 25.3113 23.8334C28.5925 23.8334 30.1092 24.8688 30.1092 24.8688C30.8529 25.4376 31.6113 25.4376 32.18 24.8688C32.7488 24.3001 32.7488 23.3813 32.18 22.798C31.8738 22.4917 30.0509 20.9167 25.3113 20.9167Z" fill="#8AA6AA"/>
</svg>
