<svg width="35" height="34" viewBox="0 0 35 34" fill="none" xmlns="http://www.w3.org/2000/svg">
<path d="M6.47844 15.9943L16.4943 5.97844C19.8234 2.66344 25.1926 2.66344 28.5218 5.97844C31.8368 9.29344 31.8368 14.6768 28.5218 18.0059L18.5059 28.0218C15.1768 31.3368 9.79344 31.3368 6.47844 28.0218C3.16344 24.6926 3.16344 19.3234 6.47844 15.9943ZM8.4901 18.0059C7.0026 19.4793 6.50677 21.5901 7.01677 23.4743L15.5026 15.0026L21.5093 21.0093L26.5101 15.9943C28.7343 13.7843 28.7343 10.2001 26.5101 7.9901C24.3001 5.76594 20.7159 5.76594 18.5059 7.9901L8.4901 18.0059Z" fill="#8AA6AA"/>
</svg>
