<svg width="31" height="30" viewBox="0 0 31 30" fill="none" xmlns="http://www.w3.org/2000/svg">
<path d="M25.2917 0L23.7475 3.41417L20.3333 4.95833L23.7475 6.5025L25.2917 9.91667L26.85 6.5025L30.25 4.95833L26.85 3.41417L25.2917 0ZM14.6667 1.41667C6.875 1.41667 0.5 7.79167 0.5 15.5833V29.75H28.8333V15.5833C28.8333 13.5008 28.3658 11.5175 27.5583 9.7325L25.8017 13.5858C25.915 14.2375 26 14.875 26 15.5833C26 21.8592 20.9425 26.9167 14.6667 26.9167C8.39083 26.9167 3.33333 21.8592 3.33333 15.5833C3.33333 15.5267 3.33333 15.4558 3.33333 15.3992C5.15744 14.7158 6.82104 13.6637 8.22017 12.3084C9.61931 10.9532 10.7239 9.32392 11.465 7.5225C12.7937 9.15609 14.4699 10.4729 16.3716 11.3772C18.2733 12.2815 20.3526 12.7505 22.4583 12.75C23.0885 12.7495 23.718 12.7069 24.3425 12.6225L22.2458 8.00417L15.5167 4.95833L20.5175 2.69167C18.7325 1.88417 16.7492 1.41667 14.6667 1.41667ZM10.4167 15.2292C9.94701 15.2292 9.49659 15.4157 9.1645 15.7478C8.8324 16.0799 8.64583 16.5303 8.64583 17C8.64583 17.4697 8.8324 17.9201 9.1645 18.2522C9.49659 18.5843 9.94701 18.7708 10.4167 18.7708C10.6492 18.7708 10.8795 18.725 11.0943 18.636C11.3092 18.547 11.5044 18.4166 11.6688 18.2522C11.8333 18.0877 11.9637 17.8925 12.0527 17.6777C12.1417 17.4628 12.1875 17.2325 12.1875 17C12.1875 16.7675 12.1417 16.5372 12.0527 16.3223C11.9637 16.1075 11.8333 15.9123 11.6688 15.7478C11.5044 15.5834 11.3092 15.453 11.0943 15.364C10.8795 15.275 10.6492 15.2292 10.4167 15.2292ZM18.9167 15.2292C18.447 15.2292 17.9966 15.4157 17.6645 15.7478C17.3324 16.0799 17.1458 16.5303 17.1458 17C17.1458 17.4697 17.3324 17.9201 17.6645 18.2522C17.9966 18.5843 18.447 18.7708 18.9167 18.7708C19.3863 18.7708 19.8367 18.5843 20.1688 18.2522C20.5009 17.9201 20.6875 17.4697 20.6875 17C20.6875 16.5303 20.5009 16.0799 20.1688 15.7478C19.8367 15.4157 19.3863 15.2292 18.9167 15.2292Z" fill="#8AA6AA"/>
</svg>
