<svg width="32" height="32" viewBox="0 0 32 32" fill="none" xmlns="http://www.w3.org/2000/svg">
<path d="M24.6683 31.1667H27.02C28.21 31.1667 29.1875 30.2458 29.3292 29.0842L31.6667 5.7375H24.5833V0H21.7925V5.7375H14.7517L15.1767 9.0525C17.5992 9.71833 19.8658 10.9225 21.2258 12.2542C23.2658 14.2658 24.6683 16.3483 24.6683 19.7483V31.1667ZM0.5 29.75V28.3333H21.7925V29.75C21.7925 30.515 21.155 31.1667 20.3333 31.1667H1.91667C1.1375 31.1667 0.5 30.515 0.5 29.75ZM21.7925 19.8333C21.7925 8.5 0.5 8.5 0.5 19.8333H21.7925ZM0.5 22.6667H21.75V25.5H0.5V22.6667Z" fill="#8AA6AA"/>
</svg>
