<svg width="15" height="29" viewBox="0 0 15 29" fill="none" xmlns="http://www.w3.org/2000/svg">
<path d="M0 0V2.83333H1.41667V22.6667C1.41667 24.1696 2.01369 25.6109 3.07639 26.6736C4.1391 27.7363 5.58044 28.3333 7.08333 28.3333C8.58623 28.3333 10.0276 27.7363 11.0903 26.6736C12.153 25.6109 12.75 24.1696 12.75 22.6667V2.83333H14.1667V0H0ZM5.66667 19.8333C4.81667 19.8333 4.25 19.2667 4.25 18.4167C4.25 17.5667 4.81667 17 5.66667 17C6.51667 17 7.08333 17.5667 7.08333 18.4167C7.08333 19.2667 6.51667 19.8333 5.66667 19.8333ZM8.5 14.1667C7.65 14.1667 7.08333 13.6 7.08333 12.75C7.08333 11.9 7.65 11.3333 8.5 11.3333C9.35 11.3333 9.91667 11.9 9.91667 12.75C9.91667 13.6 9.35 14.1667 8.5 14.1667ZM9.91667 7.08333H4.25V2.83333H9.91667V7.08333Z" fill="#8AA6AA"/>
</svg>
