<svg width="35" height="35" viewBox="0 0 35 35" fill="none" xmlns="http://www.w3.org/2000/svg">
<path fill-rule="evenodd" clip-rule="evenodd" d="M16.0429 21.1486H19.6888C19.6888 21.4352 19.7289 21.7144 19.804 21.982C19.7243 22.0145 19.6517 22.0624 19.5905 22.123C19.5293 22.1835 19.4807 22.2556 19.4474 22.3349C19.4141 22.4143 19.3967 22.4995 19.3963 22.5856C19.396 22.6716 19.4126 22.757 19.4452 22.8366L19.4737 22.9052C19.5469 23.0841 19.6882 23.2267 19.8665 23.3015C20.0448 23.3763 20.2455 23.3772 20.4245 23.304L20.5062 23.2705C20.7584 23.5636 21.0611 23.8246 21.4045 24.0434C21.2142 24.3985 21.3447 24.8455 21.6991 25.0365C21.8694 25.128 22.0692 25.148 22.2543 25.0922C22.4395 25.0364 22.5949 24.9094 22.6864 24.739L22.7476 24.6267C23.2288 24.7524 23.7256 24.8081 24.2227 24.7922L24.2417 24.8907C24.2784 25.0806 24.3891 25.2481 24.5494 25.3564C24.7096 25.4647 24.9064 25.5049 25.0963 25.4682C25.2862 25.4314 25.4537 25.3208 25.562 25.1605C25.6703 25.0002 25.7105 24.8035 25.6738 24.6136L25.6599 24.5443C26.2949 24.342 26.8767 24.0002 27.3625 23.5439L27.5886 26.263C27.4083 26.2935 27.2461 26.3905 27.1341 26.5349C27.022 26.6793 26.9683 26.8605 26.9835 27.0427C26.9987 27.2248 27.0818 27.3946 27.2163 27.5184C27.3507 27.6422 27.5268 27.711 27.7096 27.7111H29.8971V14.5861C29.9006 13.5962 29.5748 12.6333 28.9711 11.8488C29.4268 11.9713 29.7454 12.15 29.97 12.3665C30.3762 12.7566 30.6263 13.4136 30.6263 14.5861L30.9084 18.5382C30.7371 18.8043 30.6263 19.2214 30.6263 19.6903C30.6263 20.496 30.9529 21.1486 31.3554 21.1486C31.7579 21.1486 32.0846 20.496 32.0846 19.6903C32.0846 19.2214 31.9738 18.8043 31.8024 18.5382L32.0846 14.5861C32.0846 13.2488 31.8053 12.1069 30.9806 11.3143C30.1662 10.5319 28.9711 10.2373 27.5003 10.2126C27.4449 10.2111 25.9275 10.2111 25.8867 10.2111V10.2162C25.8192 10.2128 25.7516 10.2111 25.684 10.2111H14.9492C13.539 10.2111 12.4737 10.0011 11.5804 9.72402L11.4689 9.57381C11.9574 9.44985 12.4496 9.25152 12.8032 8.99048C13.7293 8.30943 14.2667 6.93933 13.0818 7.08954C12.7369 7.13329 12.4882 7.14204 12.2848 7.14933C11.7904 7.1661 11.5702 7.17412 10.914 7.65756C10.6635 7.84059 10.4312 8.04742 10.2205 8.27516C9.20042 7.51683 7.84272 7.17777 5.47001 7.29443C5.37331 7.29443 5.28058 7.33284 5.21221 7.40122C5.14384 7.46959 5.10542 7.56232 5.10542 7.65902C5.10542 7.75571 5.14384 7.84844 5.21221 7.91682C5.28058 7.98519 5.37331 8.0236 5.47001 8.0236H6.73657C6.94511 8.15777 7.12303 8.28318 7.28126 8.40277L4.66792 11.6694H4.51334C4.28595 11.6694 4.0617 11.7225 3.8585 11.8246C3.6553 11.9266 3.47878 12.0748 3.34304 12.2572C3.2073 12.4396 3.11609 12.6513 3.07672 12.8752C3.03734 13.0992 3.05088 13.3292 3.11626 13.547L3.33501 14.2762C3.42518 14.5766 3.6098 14.8399 3.86147 15.0271C4.11314 15.2143 4.41845 15.3153 4.73209 15.3153H7.18355C7.49171 15.3154 7.7919 15.4132 8.04105 15.5945L9.63792 16.7554C9.68605 16.7904 9.73563 16.8225 9.78594 16.8502C10.9285 19.796 12.1339 22.09 13.4828 23.2442L13.7344 26.263C13.5542 26.2935 13.392 26.3905 13.2799 26.5349C13.1678 26.6793 13.1141 26.8605 13.1293 27.0427C13.1446 27.2248 13.2276 27.3946 13.3621 27.5184C13.4966 27.6422 13.6726 27.711 13.8554 27.7111H16.0429V21.1486ZM23.196 21.1486H21.1471C21.1471 22.1184 22.1927 23.3361 24.0638 23.3361C24.7572 23.3361 25.3376 23.1684 25.7933 22.9088C24.7506 22.4932 23.9427 21.8748 23.1968 21.1486" fill="#8AA6AA"/>
</svg>
