<svg width="200" height="450" viewBox="0 0 200 450" fill="none" xmlns="http://www.w3.org/2000/svg">
<path d="M65.0664 104.126C62.3197 104.126 58.5693 104.021 54.819 104.126C51.5441 104.283 49.3784 103.126 50.0651 99.6556C52.2307 88.9802 46.6845 82.5117 38.3388 77.4106C32.8454 74.045 30.6269 69.4698 31.2607 62.9488C31.8418 56.6908 31.5776 50.3275 31.3135 44.0169C31.1551 40.1254 32.7398 38.0745 36.4901 37.5486C44.6774 36.3917 52.8118 35.0244 61.0519 34.2355C65.2248 33.8148 67.0735 32.5001 66.7038 28.1352C66.3869 24.2963 66.5453 20.4047 66.7038 16.5657C66.8094 14.1466 65.7001 10.5707 69.873 10.8862C70.771 10.9388 72.0387 14.3045 72.0387 16.1977C72.1444 51.8001 72.1972 87.3499 72.0387 122.952C72.0387 125.319 70.5597 128.369 68.711 129.894C49.5369 146.039 32.0531 163.708 17.1047 183.797C14.8334 186.9 12.3507 190.108 11.1887 193.684C9.81531 197.681 8.70609 202.256 9.39276 206.305C16.4708 247.324 17.58 288.553 14.5692 329.941C13.46 345.296 11.3471 360.6 8.86452 375.798C8.01938 381.214 9.44556 384.685 13.9882 386.263C24.7109 390.102 35.3808 394.467 46.5261 396.57C82.286 403.354 118.204 403.985 154.07 396.938C165.849 394.624 177.47 391.785 187.612 384.896C190.253 383.108 191.784 381.162 191.045 377.481C183.861 342.72 182.752 307.538 184.442 272.304C185.446 251.689 187.928 231.127 190.464 210.617C191.52 202.151 190.358 194.788 185.868 187.584C176.044 171.965 163.05 159.133 149.686 146.67C143.4 140.832 136.533 135.574 130.248 129.684C128.452 128.001 126.656 125.161 126.656 122.795C126.445 87.0344 126.445 51.2742 126.603 15.514C126.603 13.8312 128.082 12.2009 128.874 10.5181C129.931 12.1483 131.621 13.726 131.832 15.4614C132.255 19.6159 132.202 23.8755 131.938 28.0826C131.674 32.1319 133.311 33.657 137.273 34.0251C145.143 34.7614 152.961 35.971 160.831 36.9176C166.166 37.5487 168.86 39.8624 168.385 45.8049C167.856 52.7466 168.543 59.846 168.068 66.8403C167.909 69.4697 166.113 72.0992 164.634 74.4657C163.736 75.8856 162.099 76.9374 160.62 77.8314C152.644 82.8273 147.467 89.1379 149.58 99.3401C150.373 103.074 148.048 104.178 144.562 104.02C140.601 103.863 136.639 104.02 133.681 104.02C134.473 108.227 135.847 111.698 135.635 115.064C135.266 120.744 137.326 124.372 141.71 127.948C160.673 143.514 177.523 161.079 191.626 181.22C198.545 191.054 200.87 201.046 198.81 213.299C189.513 268.044 190.147 322.841 199.76 377.533C200.87 383.791 198.017 388.051 193.475 391.574C184.918 398.2 174.934 401.987 164.476 403.512C145.883 406.247 127.184 408.192 108.485 409.98C103.837 410.401 101.988 411.453 102.147 416.344C102.464 425.967 102.305 435.643 102.041 445.267C102.041 446.897 100.298 448.422 99.4001 450C98.4493 448.475 96.6534 446.95 96.6534 445.372C96.3893 435.749 96.3365 426.072 96.6534 416.449C96.8119 411.768 95.3329 410.401 90.4733 409.928C71.9331 408.192 53.2872 406.615 35.0111 403.302C25.5561 401.566 16.4708 396.886 7.80811 392.468C1.20546 389.103 -1.013 383.213 0.413174 375.167C10.1323 318.687 9.65689 262.207 0.254717 205.674C-0.537601 200.888 0.730079 195.051 2.94857 190.634C11.5056 173.49 24.4996 159.554 38.0218 146.196C45.0999 139.15 52.7061 132.576 60.3124 126.055C63.0063 123.794 64.1155 121.427 64.1155 117.956C64.1155 113.644 64.7494 109.332 65.2248 104.02L65.0664 104.126Z" fill="#8AA6AA"/>
</svg>
