<svg width="200" height="450" viewBox="0 0 200 450" fill="none" xmlns="http://www.w3.org/2000/svg">
<path d="M4.08017 200.492L196.259 198.029C196.259 203.097 196.212 208.213 196.07 213.377C195.362 244.31 192.434 273.443 188.041 300.586C188.608 313.376 189.175 326.166 189.789 338.956C191.489 349.425 193.142 359.894 194.842 370.363C195.834 376.332 196.826 382.253 197.818 388.222C197.298 390.875 196.779 393.575 196.259 396.228C191.489 399.212 185.774 402.339 179.115 405.133C169.433 409.207 160.553 411.434 153.327 412.665C128.012 413.85 102.744 414.986 77.4284 416.171C59.8116 413.186 42.2421 410.155 24.6253 407.17C17.7769 403.618 10.9286 400.065 4.12744 396.559L2.89941 385.759L9.22822 350.231L11.4008 318.208L10.5507 293.149C10.5507 293.149 8.42532 268.137 8.42532 267.19C8.42532 266.242 8.99213 245.826 8.99213 245.826L6.63063 227.541L4.17465 215.935L2.94669 207.598L4.17465 200.492H4.08017Z" fill="#8AA6AA"/>
<path d="M65.6203 104.85H133.537C133.537 108.735 133.821 112.382 133.49 115.935C133.018 120.814 134.86 123.941 138.685 127.02C158.05 142.747 175.1 160.748 190.024 180.833C198.29 191.965 201.029 203.239 198.573 217.213C189.552 269.227 190.166 321.477 197.439 373.679C198.006 377.848 198.667 382.016 199.565 386.09C200.887 392.011 199.234 396.938 194.086 399.78C187.757 403.286 181.239 406.886 174.344 408.923C145.675 417.402 116.156 418.681 86.4488 417.734C65.9982 417.071 45.5948 415.223 25.9471 409.017C19.0515 406.838 12.4865 403.475 6.11049 400.017C0.77349 397.08 -0.785108 392.106 0.348413 385.901C5.8271 355.536 8.84981 324.84 7.71629 294.096C6.67723 266.005 3.22947 237.962 0.442894 209.918C-0.218327 203.097 0.112223 196.939 3.70171 190.923C16.69 168.895 33.8818 150.421 53.1988 134.078C62.5504 126.167 70.0127 118.682 65.6203 104.755V104.85ZM108.647 414.892C119.84 413.613 139.724 412.191 159.277 408.781C170.046 406.886 180.295 401.959 190.544 397.791C194.464 396.18 196.92 392.817 196.07 387.606C194.275 376.758 192.905 365.863 191.583 354.968C186.057 309.586 186.86 264.205 194.558 219.25C197.25 203.381 193.708 191.302 184.262 179.222C170.707 161.837 156.019 145.542 138.78 131.852C132.309 126.688 128.436 121.62 129.948 113.188C130.703 109.066 128.578 107.882 124.611 107.929C109.072 108.119 93.5805 107.977 78.0418 108.024C69.871 108.024 69.3987 108.024 70.0127 116.456C70.4378 122.472 68.029 125.93 63.6366 129.767C52.5376 139.526 41.3441 149.379 31.5675 160.369C22.1687 170.98 14.1396 182.87 6.29937 194.712C4.07956 198.076 3.7962 203.429 4.17404 207.739C5.16587 219.014 7.05504 230.24 8.42471 241.515C14.0923 288.412 11.967 335.119 5.02414 381.685C3.18217 393.954 4.12678 396.133 15.5092 401.486C17.4929 402.433 19.5238 403.191 21.6019 403.902C47.0117 412.618 73.4133 413.944 108.6 414.939L108.647 414.892Z" fill="#8AA6AA"/>
<rect x="69" y="107.889" width="62" height="15" rx="3" fill="#8AA6AA"/>
<path d="M80.0174 98.1679C79.0793 96.178 80.531 93.8887 82.7309 93.8887H100H117.269C119.469 93.8887 120.921 96.178 119.983 98.1679L116.211 106.168C115.716 107.218 114.659 107.889 113.498 107.889H86.5024C85.341 107.889 84.284 107.218 83.7888 106.168L80.0174 98.1679Z" fill="#8AA6AA"/>
<path d="M4.0791 200.491L6.58229 191.159L30.2918 159.563L49.7033 142.225L148.792 140.33L159.797 150.941L170.66 162.737C170.66 162.737 185.442 180.216 187.757 184.148C190.071 188.08 195.03 197.98 195.03 197.98L193.897 207.597L4.0791 200.444V200.491Z" fill="#8AA6AA"/>
</svg>
