<svg width="25" height="25" viewBox="0 0 25 25" fill="none" xmlns="http://www.w3.org/2000/svg">
<path d="M19.695 18.9957V20.6675C19.695 21.1923 19.4864 21.6955 19.1152 22.0666C18.7439 22.4376 18.2404 22.6461 17.7153 22.6461H7.81689C7.29185 22.6461 6.78831 22.4376 6.41704 22.0666C6.04578 21.6955 5.83721 21.1923 5.83721 20.6675V17.0072C5.38188 16.8291 4.79787 16.7104 3.85752 16.7104C3.595 16.7104 3.34323 16.6062 3.15759 16.4207C2.97196 16.2352 2.86768 15.9835 2.86768 15.7212C2.86768 15.4588 2.97196 15.2072 3.15759 15.0216C3.34323 14.8361 3.595 14.7319 3.85752 14.7319C4.66919 14.7319 5.31259 14.811 5.83721 14.9396V13.0501C5.38188 12.872 4.79787 12.7533 3.85752 12.7533C3.595 12.7533 3.34323 12.6491 3.15759 12.4636C2.97196 12.2781 2.86768 12.0264 2.86768 11.7641C2.86768 11.5017 2.97196 11.2501 3.15759 11.0645C3.34323 10.879 3.595 10.7748 3.85752 10.7748C4.66919 10.7748 5.31259 10.8539 5.83721 10.9825V9.09302C5.38188 8.91495 4.79787 8.79624 3.85752 8.79624C3.595 8.79624 3.34323 8.69201 3.15759 8.50649C2.97196 8.32096 2.86768 8.06934 2.86768 7.80697C2.86768 7.54459 2.97196 7.29297 3.15759 7.10744C3.34323 6.92192 3.595 6.81769 3.85752 6.81769C4.66919 6.81769 5.31259 6.89683 5.83721 7.02544V4.83914C5.83721 4.3144 6.04578 3.81115 6.41704 3.4401C6.78831 3.06905 7.29185 2.8606 7.81689 2.8606H17.7153C18.2404 2.8606 18.7439 3.06905 19.1152 3.4401C19.4864 3.81115 19.695 4.3144 19.695 4.83914V6.97598C21.4569 7.28265 22.2092 7.93557 22.3775 8.09385C22.7635 8.47967 22.7635 9.11281 22.3775 9.49862C21.9915 9.88444 21.4767 9.87455 20.9719 9.49862C20.9719 9.49862 19.9425 8.79624 17.7153 8.79624C16.4681 8.79624 15.6466 9.20184 14.6963 9.68659C13.6669 10.1911 12.5088 10.7748 10.7864 10.7748C10.4301 10.7748 10.1034 10.7748 9.79658 10.7352V8.74678C10.0935 8.79624 10.4202 8.79624 10.7864 8.79624C12.0336 8.79624 12.8552 8.39064 13.8054 7.91579C14.8349 7.40136 16.0029 6.81769 17.7153 6.81769V4.83914H7.81689V20.6675H17.7153V18.689C19.2001 18.689 19.6653 18.9759 19.695 18.9957ZM17.7153 10.7748C16.0029 10.7748 14.8349 11.3585 13.8054 11.8729C12.8552 12.3477 12.0336 12.7533 10.7864 12.7533C10.4202 12.7533 10.0935 12.7533 9.79658 12.7039V14.6923C10.1034 14.7319 10.4301 14.7319 10.7864 14.7319C12.5088 14.7319 13.6669 14.1482 14.6963 13.6437C15.6466 13.1688 16.4681 12.7533 17.7153 12.7533C19.9425 12.7533 20.9719 13.4557 20.9719 13.4557C21.4767 13.8415 21.9915 13.8415 22.3775 13.4557C22.7635 13.0699 22.7635 12.4467 22.3775 12.051C22.1696 11.8432 20.9323 10.7748 17.7153 10.7748ZM17.7153 14.7319C16.0029 14.7319 14.8349 15.3156 13.8054 15.83C12.8552 16.3048 12.0336 16.7104 10.7864 16.7104C10.4202 16.7104 10.0935 16.7104 9.79658 16.661V18.6494C10.1034 18.689 10.4301 18.689 10.7864 18.689C12.5088 18.689 13.6669 18.1053 14.6963 17.6008C15.6466 17.1259 16.4681 16.7104 17.7153 16.7104C19.9425 16.7104 20.9719 17.4128 20.9719 17.4128C21.4767 17.7986 21.9915 17.7986 22.3775 17.4128C22.7635 17.027 22.7635 16.4038 22.3775 16.008C22.1696 15.8003 20.9323 14.7319 17.7153 14.7319Z" fill="white"/>
</svg>
