<svg width="12" height="20" viewBox="0 0 12 20" fill="none" xmlns="http://www.w3.org/2000/svg">
<path d="M1.95117 8.89971C1.95119 8.13691 2.14872 7.38711 2.52453 6.7233C2.90034 6.0595 3.44163 5.50432 4.0957 5.11181C4.12766 5.09268 4.15412 5.06559 4.17249 5.03318C4.19086 5.00078 4.20052 4.96416 4.20052 4.92691V1H7.79948V4.92691C7.79948 5.00249 7.83907 5.07267 7.9043 5.11136C8.55843 5.50391 9.09976 6.05916 9.47558 6.72305C9.8514 7.38694 10.0489 8.13683 10.0488 8.89971V18.0951C10.0488 18.3337 9.95403 18.5625 9.7853 18.7313C9.61657 18.9 9.38771 18.9948 9.14909 18.9948H2.85091C2.61229 18.9948 2.38343 18.9 2.2147 18.7313C2.04597 18.5625 1.95117 18.3337 1.95117 18.0951V8.89971Z" stroke="#8AA6AA" stroke-width="2" stroke-linecap="round" stroke-linejoin="round"/>
<path d="M4.20068 3.69922H7.79964" stroke="#8AA6AA" stroke-width="2" stroke-linecap="round"/>
<path d="M10.049 9.54761H6.00016V16.2957H10.049M10.049 17.1954V8.64787M4.20068 4.59904V2.79956M7.79964 4.59904V2.79956" stroke="#8AA6AA" stroke-width="2" stroke-linecap="round" stroke-linejoin="round"/>
</svg>
