<svg width="24" height="24" viewBox="0 0 24 24" fill="none" xmlns="http://www.w3.org/2000/svg">
<path d="M14.2529 9.47721C12.7681 7.80534 12.8671 3.95706 12.8671 3.95706H13.8569V1.97852H9.89756V3.95706H10.8874C10.8874 3.95706 10.9864 7.80534 9.50162 9.47721C9.31456 9.66045 9.16575 9.87897 9.0638 10.1201C8.96186 10.3612 8.9088 10.6202 8.90771 10.882V19.7854C8.90771 20.3102 9.11629 20.8134 9.48755 21.1845C9.85882 21.5555 10.3624 21.764 10.8874 21.764H12.8671C13.3921 21.764 13.8957 21.5555 14.2669 21.1845C14.6382 20.8134 14.8468 20.3102 14.8468 19.7854V10.882C14.8457 10.6202 14.7926 10.3612 14.6907 10.1201C14.5887 9.87897 14.4399 9.66045 14.2529 9.47721ZM12.8671 19.7854H10.8874V10.882L10.9864 10.7929C11.3444 10.3699 11.6441 9.90077 11.8772 9.39807C12.1104 9.90077 12.4101 10.3699 12.7681 10.7929L12.8671 10.882V19.7854Z" fill="white"/>
</svg>
