<svg width="44" height="44" viewBox="0 0 44 44" fill="none" xmlns="http://www.w3.org/2000/svg">
<path d="M31.1668 11H29.3335V9.16667C29.3335 7.15 27.6835 5.5 25.6668 5.5H18.3335C16.3168 5.5 14.6668 7.15 14.6668 9.16667V11H12.8335C6.76516 11 1.8335 15.9317 1.8335 22C1.8335 28.0683 6.76516 33 12.8335 33V38.5H16.5002V33H27.5002V38.5H31.1668V33C37.2352 33 42.1668 28.0683 42.1668 22C42.1668 15.9317 37.2352 11 31.1668 11ZM18.3335 9.16667H25.6668V11H18.3335V9.16667ZM31.1668 29.3333H12.8335C8.78183 29.3333 5.50016 26.0517 5.50016 22C5.50016 17.9483 8.78183 14.6667 12.8335 14.6667H31.1668C35.2185 14.6667 38.5002 17.9483 38.5002 22C38.5002 26.0517 35.2185 29.3333 31.1668 29.3333Z" fill="#CDD7D8"/>
</svg>
