<svg width="44" height="44" viewBox="0 0 44 44" fill="none" xmlns="http://www.w3.org/2000/svg">
<path d="M22.0002 33C19.0828 33 16.2849 31.8411 14.222 29.7782C12.1591 27.7153 11.0002 24.9174 11.0002 22C11.0002 20.1667 11.4585 18.3883 12.2835 16.8667L9.60683 14.19C8.17683 16.445 7.3335 19.1217 7.3335 22C7.3335 25.8898 8.87873 29.6204 11.6293 32.3709C14.3798 35.1214 18.1103 36.6667 22.0002 36.6667V42.1667L29.3335 34.8333L22.0002 27.5M22.0002 7.33333V1.83333L14.6668 9.16666L22.0002 16.5V11C24.9175 11 27.7154 12.1589 29.7783 14.2218C31.8412 16.2847 33.0002 19.0826 33.0002 22C33.0002 23.8333 32.5418 25.6117 31.7168 27.1333L34.3935 29.81C35.8235 27.555 36.6668 24.8783 36.6668 22C36.6668 18.1102 35.1216 14.3796 32.3711 11.6291C29.6205 8.87856 25.89 7.33333 22.0002 7.33333Z" fill="#CDD7D8"/>
</svg>
