<svg width="44" height="44" viewBox="0 0 44 44" fill="none" xmlns="http://www.w3.org/2000/svg">
<path d="M36.6665 29.3333H40.3332V33H36.6665C34.0998 33 31.5332 32.2667 29.3332 31.1667C24.7498 33.55 19.2498 33.55 14.6665 31.1667C12.4665 32.2667 9.89984 33 7.33317 33H3.6665V29.3333H7.33317C9.89984 29.3333 12.4665 28.4167 14.6665 26.95C19.0665 30.0667 24.9332 30.0667 29.3332 26.95C31.5332 28.4167 34.0998 29.3333 36.6665 29.3333ZM23.8332 19.4333C24.9332 18.8833 26.2165 18.3333 27.4998 18.15V18.7C28.0498 20.5333 28.0498 22.1833 27.8665 24.0167C26.2165 24.9333 24.1998 25.4833 22.3665 25.4833C23.2832 23.65 23.8332 21.45 23.8332 19.4333ZM23.6498 6.6C21.0832 7.33334 18.8832 8.61667 17.0498 10.45C16.3165 8.61667 15.9498 6.78334 15.9498 4.95C19.9832 3.11667 24.5665 3.3 28.5998 5.31667C29.1498 5.5 29.6998 5.68334 30.0665 6.05C27.8665 5.86667 25.6665 6.05 23.6498 6.6ZM12.4665 24.3833C11.3665 24.9333 10.2665 25.3 9.1665 25.4833C7.88317 23.1 7.33317 20.5333 7.33317 17.9667C8.24984 19.8 9.53317 21.6333 10.9998 23.1C11.5498 23.4667 11.9165 24.0167 12.4665 24.3833ZM34.8332 25.4833C33.7332 25.3 32.6332 24.9333 31.7165 24.5667C32.0832 22.3667 31.8998 20.1667 31.3498 17.9667C33.3665 18.15 35.1998 18.7 36.8498 19.8C36.6665 21.6333 36.1165 23.2833 35.1998 24.9333L34.8332 25.4833ZM13.5665 20.5333C11.3665 18.5167 10.0832 15.5833 9.53317 12.65L9.34984 11C10.2665 9.53334 11.1832 8.43334 12.4665 7.33334C12.6498 9.9 13.5665 12.2833 15.0332 14.3C16.3165 16.3167 18.1498 18.15 20.1665 19.25C20.1665 20.7167 19.7998 22.1833 19.2498 23.65C17.0498 23.1 15.2165 22 13.5665 20.5333ZM24.7498 10.0833C27.4998 9.35 30.6165 9.53334 33.3665 10.45L34.8332 11.1833C35.5665 12.4667 35.9332 13.9333 36.2998 15.4C31.7165 13.3833 26.3998 13.75 21.9998 16.1333C20.7165 15.5833 19.7998 14.6667 18.8832 13.5667L19.0665 13.3833C20.7165 11.9167 22.5498 10.6333 24.7498 10.0833ZM29.3332 34.2833C31.5332 35.75 34.0998 36.6667 36.6665 36.6667H40.3332V40.3333H36.6665C34.0998 40.3333 31.5332 39.6 29.3332 38.5C24.7498 40.8833 19.2498 40.8833 14.6665 38.5C12.4665 39.6 9.89984 40.3333 7.33317 40.3333H3.6665V36.6667H7.33317C9.89984 36.6667 12.4665 35.75 14.6665 34.2833C19.0665 37.4 24.9332 37.4 29.3332 34.2833Z" fill="#CDD7D8"/>
</svg>
