<svg width="44" height="44" viewBox="0 0 44 44" fill="none" xmlns="http://www.w3.org/2000/svg">
<path d="M39.875 29.7917L31.1667 38.5L26.125 33L28.2517 30.8733L31.1667 33.7883L37.7483 27.2067L39.875 29.7917ZM14.6667 25.6667C14.6667 22.4217 18.3333 16.4267 22 11.715C24.75 15.2717 27.5 19.5617 28.7283 22.8617C29.8283 22.385 31.0383 22.11 32.3033 22C29.9017 14.85 22 5.95834 22 5.95834C22 5.95834 11 18.3333 11 25.6667C11 31.735 15.9317 36.6667 22 36.6667C22.22 36.6667 22.4217 36.6667 22.6233 36.6667C22.22 35.4933 22 34.2833 22 33C17.9483 33 14.6667 29.7183 14.6667 25.6667Z" fill="#CDD7D8"/>
</svg>
