<svg width="31" height="31" viewBox="0 0 31 31" fill="none" xmlns="http://www.w3.org/2000/svg">
<path d="M25.625 0.916992L24.0808 4.33116L20.6666 5.87533L24.0808 7.41949L25.625 10.8337L27.1833 7.41949L30.5833 5.87533L27.1833 4.33116L25.625 0.916992ZM15 2.33366C7.20831 2.33366 0.833313 8.70866 0.833313 16.5003V30.667H29.1666V16.5003C29.1666 14.4178 28.6991 12.4345 27.8916 10.6495L26.135 14.5028C26.2483 15.1545 26.3333 15.792 26.3333 16.5003C26.3333 22.7762 21.2758 27.8337 15 27.8337C8.72415 27.8337 3.66665 22.7762 3.66665 16.5003C3.66665 16.4437 3.66665 16.3728 3.66665 16.3162C5.49076 15.6328 7.15435 14.5807 8.55348 13.2254C9.95262 11.8701 11.0572 10.2409 11.7983 8.43949C13.127 10.0731 14.8032 11.3899 16.7049 12.2942C18.6066 13.1985 20.6859 13.6674 22.7916 13.667C23.4218 13.6664 24.0513 13.6239 24.6758 13.5395L22.5791 8.92116L15.85 5.87533L20.8508 3.60866C19.0658 2.80116 17.0825 2.33366 15 2.33366ZM10.75 16.1462C10.2803 16.1462 9.82991 16.3327 9.49781 16.6648C9.16572 16.9969 8.97915 17.4473 8.97915 17.917C8.97915 18.3866 9.16572 18.8371 9.49781 19.1692C9.82991 19.5013 10.2803 19.6878 10.75 19.6878C10.9825 19.6878 11.2128 19.642 11.4276 19.553C11.6425 19.464 11.8377 19.3336 12.0021 19.1692C12.1666 19.0047 12.297 18.8095 12.386 18.5947C12.475 18.3798 12.5208 18.1495 12.5208 17.917C12.5208 17.6844 12.475 17.4542 12.386 17.2393C12.297 17.0245 12.1666 16.8293 12.0021 16.6648C11.8377 16.5004 11.6425 16.3699 11.4276 16.281C11.2128 16.192 10.9825 16.1462 10.75 16.1462ZM19.25 16.1462C18.7803 16.1462 18.3299 16.3327 17.9978 16.6648C17.6657 16.9969 17.4791 17.4473 17.4791 17.917C17.4791 18.3866 17.6657 18.8371 17.9978 19.1692C18.3299 19.5013 18.7803 19.6878 19.25 19.6878C19.7196 19.6878 20.1701 19.5013 20.5021 19.1692C20.8342 18.8371 21.0208 18.3866 21.0208 17.917C21.0208 17.4473 20.8342 16.9969 20.5021 16.6648C20.1701 16.3327 19.7196 16.1462 19.25 16.1462Z" fill="#8AA6AA"/>
</svg>
