<svg width="34" height="35" viewBox="0 0 34 35" fill="none" xmlns="http://www.w3.org/2000/svg">
<path opacity="0.2" d="M27.625 16.488V24.9375C27.625 26.0647 27.1772 27.1457 26.3802 27.9427C25.5832 28.7397 24.5022 29.1875 23.375 29.1875H10.625C9.49783 29.1875 8.41683 28.7397 7.6198 27.9427C6.82277 27.1457 6.375 26.0647 6.375 24.9375V16.488L13.8125 6.875H20.1875L27.625 16.488Z" fill="#8AA6AA"/>
<path d="M31.8384 17.1015L29.6576 5.41399C29.6043 5.1291 29.4933 4.85813 29.3314 4.61772C29.1695 4.37732 28.9602 4.17258 28.7162 4.01609C28.4723 3.85959 28.1989 3.75466 27.9129 3.70773C27.6269 3.6608 27.3343 3.67287 27.0532 3.74321L27.012 3.75516L20.0367 5.81243H13.9671L6.99183 3.7618L6.95065 3.74985C6.66949 3.67951 6.37691 3.66744 6.0909 3.71437C5.8049 3.7613 5.53152 3.86623 5.28757 4.02273C5.04362 4.17922 4.83427 4.38397 4.67238 4.62437C4.51049 4.86477 4.39949 5.13574 4.3462 5.42063L2.16542 17.1015C2.07216 17.5693 2.14139 18.0549 2.36164 18.478C2.58189 18.9012 2.93998 19.2364 3.37667 19.4284C3.65633 19.5566 3.96017 19.6236 4.26784 19.6249C4.63609 19.6248 4.99754 19.5257 5.3144 19.3381V24.9374C5.3144 26.3464 5.87411 27.6976 6.8704 28.6939C7.86669 29.6902 9.21794 30.2499 10.6269 30.2499H23.3769C24.7859 30.2499 26.1371 29.6902 27.1334 28.6939C28.1297 27.6976 28.6894 26.3464 28.6894 24.9374V19.3394C29.0059 19.5267 29.3669 19.6257 29.7346 19.6263C30.0426 19.6254 30.3469 19.5588 30.6271 19.431C31.0644 19.239 31.4228 18.9033 31.6431 18.4796C31.8634 18.0559 31.9323 17.5697 31.8384 17.1015ZM4.2519 17.4999L6.43401 5.81243L12.0214 7.45532L4.2519 17.4999ZM23.3769 28.1249H18.0644V26.4395L19.8786 24.6266C20.078 24.4273 20.19 24.1569 20.19 23.8749C20.19 23.593 20.078 23.3226 19.8786 23.1232C19.6793 22.9238 19.4089 22.8118 19.1269 22.8118C18.845 22.8118 18.5746 22.9238 18.3752 23.1232L17.0019 24.4978L15.6286 23.1232C15.4293 22.9238 15.1589 22.8118 14.8769 22.8118C14.595 22.8118 14.3246 22.9238 14.1252 23.1232C13.9258 23.3226 13.8138 23.593 13.8138 23.8749C13.8138 24.1569 13.9258 24.4273 14.1252 24.6266L15.9394 26.4395V28.1249H10.6269C9.78153 28.1249 8.97077 27.7891 8.373 27.1913C7.77523 26.5936 7.4394 25.7828 7.4394 24.9374V16.8505L14.3364 7.93743H19.6674L26.5644 16.8505V24.9374C26.5644 25.7828 26.2286 26.5936 25.6308 27.1913C25.033 27.7891 24.2223 28.1249 23.3769 28.1249ZM29.7519 17.4999L21.9824 7.45532L27.5698 5.81243L29.7519 17.4999ZM13.8144 19.0937C13.8144 19.4089 13.7209 19.717 13.5458 19.9791C13.3707 20.2412 13.1218 20.4455 12.8306 20.5661C12.5393 20.6867 12.2189 20.7183 11.9097 20.6568C11.6006 20.5953 11.3166 20.4435 11.0937 20.2206C10.8708 19.9977 10.719 19.7138 10.6575 19.4046C10.596 19.0954 10.6276 18.775 10.7482 18.4838C10.8688 18.1926 11.0731 17.9436 11.3352 17.7685C11.5973 17.5934 11.9054 17.4999 12.2207 17.4999C12.6433 17.4999 13.0487 17.6678 13.3476 17.9667C13.6465 18.2656 13.8144 18.671 13.8144 19.0937ZM23.3769 19.0937C23.3769 19.4089 23.2834 19.717 23.1083 19.9791C22.9332 20.2412 22.6843 20.4455 22.3931 20.5661C22.1018 20.6867 21.7814 20.7183 21.4722 20.6568C21.1631 20.5953 20.8791 20.4435 20.6562 20.2206C20.4333 19.9977 20.2815 19.7138 20.22 19.4046C20.1585 19.0954 20.1901 18.775 20.3107 18.4838C20.4313 18.1926 20.6356 17.9436 20.8977 17.7685C21.1598 17.5934 21.4679 17.4999 21.7832 17.4999C22.2058 17.4999 22.6112 17.6678 22.9101 17.9667C23.209 18.2656 23.3769 18.671 23.3769 19.0937Z" fill="#8AA6AA"/>
</svg>
