<svg width="25" height="27" viewBox="0 0 25 27" fill="none" xmlns="http://www.w3.org/2000/svg">
<path d="M20.6633 8.33398H4.32375L3.75542 3.16732H21.2446M12.5 22.5423C11.4723 22.5423 10.4867 22.1341 9.75996 21.4074C9.03326 20.6807 8.625 19.695 8.625 18.6673C8.625 16.084 12.5 11.6923 12.5 11.6923C12.5 11.6923 16.375 16.084 16.375 18.6673C16.375 19.695 15.9667 20.6807 15.24 21.4074C14.5133 22.1341 13.5277 22.5423 12.5 22.5423ZM0.875 0.583984L3.45833 24.1311C3.62625 25.4227 4.71125 26.4173 6.04167 26.4173H18.9583C20.25 26.4173 21.3737 25.4227 21.5417 24.1311L24.125 0.583984H0.875Z" fill="#8AA6AA"/>
</svg>
