<svg width="16" height="30" viewBox="0 0 16 30" fill="none" xmlns="http://www.w3.org/2000/svg">
<path d="M5.16666 15.7083C4.79093 15.7083 4.4306 15.8576 4.16492 16.1233C3.89925 16.3889 3.74999 16.7493 3.74999 17.125V27.0417H12.25V17.125C12.25 16.7493 12.1007 16.3889 11.8351 16.1233C11.5694 15.8576 11.209 15.7083 10.8333 15.7083H5.16666ZM6.58332 8.625V1.54167C6.58332 1.16594 6.73258 0.805609 6.99826 0.539932C7.26393 0.274256 7.62427 0.125 7.99999 0.125C8.37571 0.125 8.73605 0.274256 9.00172 0.539932C9.2674 0.805609 9.41666 1.16594 9.41666 1.54167V8.625H10.8333C11.209 8.625 11.5694 8.77426 11.8351 9.03993C12.1007 9.30561 12.25 9.66594 12.25 10.0417V13.1158C13.9004 13.7009 15.0833 15.2748 15.0833 17.125V27.0417C15.0833 27.7931 14.7848 28.5138 14.2535 29.0451C13.7221 29.5765 13.0014 29.875 12.25 29.875H3.74999C2.99854 29.875 2.27787 29.5765 1.74652 29.0451C1.21517 28.5138 0.916656 27.7931 0.916656 27.0417V17.125C0.916656 15.2748 2.09957 13.7009 3.74999 13.1158V10.0417C3.74999 9.66594 3.89925 9.30561 4.16492 9.03993C4.4306 8.77426 4.79093 8.625 5.16666 8.625H6.58332ZM6.58332 11.4583V12.875H9.41666V11.4583H6.58332Z" fill="#8AA6AA"/>
</svg>
