<svg width="38" height="38" viewBox="0 0 38 38" fill="none" xmlns="http://www.w3.org/2000/svg">
<circle cx="19" cy="19" r="18.5" stroke="#8AA6AA"/>
<path d="M14.8156 18.0589C15.9356 20.26 17.74 22.0644 19.9411 23.1844L21.6522 21.4733C21.87 21.2556 22.1733 21.1933 22.4456 21.2789C23.3167 21.5667 24.25 21.7222 25.2222 21.7222C25.4285 21.7222 25.6263 21.8042 25.7722 21.95C25.9181 22.0959 26 22.2937 26 22.5V25.2222C26 25.4285 25.9181 25.6263 25.7722 25.7722C25.6263 25.9181 25.4285 26 25.2222 26C21.7155 26 18.3523 24.6069 15.8727 22.1273C13.3931 19.6477 12 16.2845 12 12.7778C12 12.5715 12.0819 12.3737 12.2278 12.2278C12.3737 12.0819 12.5715 12 12.7778 12H15.5C15.7063 12 15.9041 12.0819 16.05 12.2278C16.1958 12.3737 16.2778 12.5715 16.2778 12.7778C16.2778 13.75 16.4333 14.6833 16.7211 15.5544C16.8067 15.8267 16.7444 16.13 16.5267 16.3478L14.8156 18.0589Z" fill="#8AA6AA"/>
</svg>
