<svg width="38" height="38" viewBox="0 0 38 38" fill="none" xmlns="http://www.w3.org/2000/svg">
<circle cx="19" cy="19" r="18.5" stroke="#8AA6AA"/>
<path d="M18.9 18.65C18.4359 18.65 17.9908 18.4656 17.6626 18.1374C17.3344 17.8092 17.15 17.3641 17.15 16.9C17.15 16.4359 17.3344 15.9908 17.6626 15.6626C17.9908 15.3344 18.4359 15.15 18.9 15.15C19.3641 15.15 19.8092 15.3344 20.1374 15.6626C20.4656 15.9908 20.65 16.4359 20.65 16.9C20.65 17.1298 20.6047 17.3574 20.5168 17.5697C20.4288 17.782 20.2999 17.9749 20.1374 18.1374C19.9749 18.2999 19.782 18.4288 19.5697 18.5168C19.3574 18.6047 19.1298 18.65 18.9 18.65ZM18.9 12C17.6004 12 16.3541 12.5162 15.4352 13.4352C14.5162 14.3541 14 15.6004 14 16.9C14 20.575 18.9 26 18.9 26C18.9 26 23.8 20.575 23.8 16.9C23.8 15.6004 23.2838 14.3541 22.3648 13.4352C21.4459 12.5162 20.1996 12 18.9 12Z" fill="#8AA6AA"/>
</svg>
