<svg width="18" height="31" viewBox="0 0 18 31" fill="none" xmlns="http://www.w3.org/2000/svg">
<path d="M10.4167 0.916016C11.1315 0.91579 11.82 1.18576 12.3441 1.6718C12.8682 2.15785 13.1893 2.82405 13.2429 3.53685L13.25 3.74935V4.45768C13.25 6.32343 13.7897 8.14668 14.7998 9.70643L15.0407 10.0606L15.1115 10.1626C16.5663 12.2048 17.3934 14.6272 17.4915 17.1326L17.5 17.6341V26.416C17.5001 27.5001 17.0859 28.5432 16.3422 29.3319C15.5985 30.1206 14.5815 30.5953 13.4993 30.6589L13.25 30.666H4.75C3.66595 30.6661 2.62285 30.2519 1.83413 29.5082C1.04541 28.7645 0.570681 27.7475 0.507083 26.6653L0.5 26.416V17.6327C0.500461 15.1254 1.23204 12.6727 2.60517 10.5748L2.8885 10.1612L2.95933 10.0634C4.12436 8.42638 4.75026 6.46696 4.75 4.45768V3.74935C4.74977 3.03453 5.01974 2.34605 5.50579 1.82191C5.99183 1.29777 6.65803 0.97671 7.37083 0.923099L7.58333 0.916016H10.4167ZM10.9295 7.99935H7.0705C6.72465 9.1703 6.20918 10.2843 5.5405 11.3058L5.26567 11.7082L5.19483 11.8059C4.07197 13.3835 3.42898 15.252 3.34325 17.1864L3.339 17.3635C4.15636 16.786 5.13622 16.4833 6.13692 16.4993C6.91858 16.4831 7.69244 16.6574 8.39168 17.0071C9.09092 17.3569 9.69451 17.8716 10.1503 18.5068C10.5328 19.038 11.1505 19.3468 11.8631 19.3327C12.1848 19.3393 12.5032 19.2676 12.791 19.1237C13.0788 18.9798 13.3272 18.7681 13.5149 18.5068C13.831 18.0672 14.2189 17.684 14.6624 17.3734L14.6667 17.6327C14.6667 15.6918 14.1057 13.7978 13.0559 12.1757L12.7329 11.7053C11.9309 10.5783 11.3215 9.32593 10.9295 7.99935Z" fill="#8AA6AA"/>
</svg>
