<svg width="29" height="31" viewBox="0 0 29 31" fill="none" xmlns="http://www.w3.org/2000/svg">
<path d="M14.4688 -0.00390625C13.2668 -0.00390625 12.2773 0.984219 12.2773 2.1875C12.2773 3.39078 13.2668 4.37891 14.4688 4.37891C15.6707 4.37891 16.6602 3.39078 16.6602 2.1875C16.6602 0.984219 15.6707 -0.00390625 14.4688 -0.00390625ZM14.4688 1.19141C15.0266 1.19141 15.4648 1.63035 15.4648 2.1875C15.4648 2.74465 15.0266 3.18359 14.4688 3.18359C13.9109 3.18359 13.4727 2.74465 13.4727 2.1875C13.4727 1.63035 13.9109 1.19141 14.4688 1.19141ZM2.25 3.84766C1.04672 3.84766 0.0585938 4.83578 0.0585938 6.03906C0.0585938 7.24102 1.04672 8.23047 2.25 8.23047C3.45328 8.23047 4.44141 7.24102 4.44141 6.03906C4.44141 4.83578 3.45328 3.84766 2.25 3.84766ZM2.25 5.04297C2.80715 5.04297 3.24609 5.48191 3.24609 6.03906C3.24609 6.59688 2.80715 7.03516 2.25 7.03516C1.69285 7.03516 1.25391 6.59688 1.25391 6.03906C1.25391 5.48191 1.69285 5.04297 2.25 5.04297ZM12.6027 7.6793C11.1086 7.6793 9.88008 8.90781 9.88008 10.402C9.88008 11.8961 11.1086 13.1246 12.6027 13.1246C14.0969 13.1246 15.3254 11.8961 15.3254 10.402C15.3254 8.90781 14.0969 7.6793 12.6027 7.6793ZM12.6027 8.87461C13.4527 8.87461 14.1301 9.55195 14.1301 10.402C14.1301 11.252 13.4527 11.9293 12.6027 11.9293C11.7527 11.9293 11.0754 11.252 11.0754 10.402C11.0754 9.55195 11.7527 8.87461 12.6027 8.87461ZM5.4375 9.75781C5.15571 9.75781 4.88546 9.86975 4.6862 10.069C4.48694 10.2683 4.375 10.5385 4.375 10.8203C4.375 11.1021 4.48694 11.3724 4.6862 11.5716C4.88546 11.7709 5.15571 11.8828 5.4375 11.8828C5.71929 11.8828 5.98954 11.7709 6.1888 11.5716C6.38806 11.3724 6.5 11.1021 6.5 10.8203C6.5 10.5385 6.38806 10.2683 6.1888 10.069C5.98954 9.86975 5.71929 9.75781 5.4375 9.75781ZM20.2461 13.8352C19.9141 13.8484 19.5422 13.9945 18.918 14.3066L12.4035 17.5672C12.4102 17.6203 12.4102 17.6734 12.4102 17.7266C12.4102 19.5195 10.9492 20.9805 9.15625 20.9805C8.36602 20.9805 7.64883 20.7016 7.08438 20.2301L5.53047 21.007C4.98594 21.3258 4.58352 21.5582 4.33449 21.8637C4.08348 22.1758 3.91016 22.5941 3.91016 23.484V26.3461C3.91016 27.0367 3.94934 27.3223 3.98852 27.3887C4.02836 27.4617 4.18773 27.5879 4.75352 27.8801L9.97969 30.4965L9.99961 30.5031C11.082 31.1473 12.4434 31.0875 13.7648 30.4234L26.9996 23.8559C27.6305 23.5039 27.9027 23.2516 28.0355 23.0125C28.1684 22.7668 28.2148 22.4348 28.2148 21.8105V19.2473C28.2148 18.4039 28.2281 17.9324 28.1617 17.7598C28.102 17.5805 27.9957 17.4543 27.3449 17.1355V17.1289L21.7137 14.3133L21.707 14.3066C20.9832 13.9281 20.5848 13.8219 20.2461 13.8352ZM9.15625 15.668C8.01406 15.668 7.09766 16.5844 7.09766 17.7266C7.09766 18.8687 8.01406 19.7852 9.15625 19.7852C10.2984 19.7852 11.2148 18.8687 11.2148 17.7266C11.2148 16.5844 10.2984 15.668 9.15625 15.668ZM25.5453 17.959L26.0633 19.0348L15.8367 23.9355H15.8301C14.7012 24.4535 13.818 24.925 12.8219 25.1043C11.8324 25.277 10.7766 25.0777 9.52813 24.3738L9.55469 24.3937L6.66602 22.9727L7.19727 21.8969L10.0992 23.3246L10.1125 23.3379C11.2148 23.9555 11.8922 24.0484 12.6227 23.9223C13.3465 23.7961 14.1699 23.3777 15.332 22.8465L25.5453 17.959Z" fill="#8AA6AA"/>
</svg>
