<svg width="34" height="34" viewBox="0 0 34 34" fill="none" xmlns="http://www.w3.org/2000/svg">
<path d="M26.1243 0.624512C26.9544 -0.205566 28.3024 -0.205566 29.1325 0.624512L33.3825 4.87451C34.2126 5.70459 34.2126 7.05264 33.3825 7.88271C32.5989 8.66631 31.3438 8.71279 30.5138 8.00889L29.8829 8.63975L26.6423 11.8804C26.0313 12.4913 25.8786 13.4011 26.0712 14.2444C26.6954 16.9604 25.945 19.9288 23.8267 22.0472L13.102 32.7585C11.4419 34.4186 8.75244 34.4186 7.09228 32.7585L1.24854 26.9147C-0.411621 25.2546 -0.411621 22.5651 1.24854 20.905L11.9665 10.1804C14.0849 8.06201 17.0532 7.31826 19.7692 7.93584C20.606 8.12842 21.5224 7.96904 22.1267 7.36475L25.3673 4.12412L25.9981 3.49326C25.2942 2.65654 25.3341 1.40811 26.1243 0.624512ZM6.59424 23.0632L10.9372 27.4062C11.3489 27.8179 12.0263 27.8179 12.438 27.4062L18.906 20.9382C19.3177 20.5265 19.3177 19.8491 18.906 19.4374L14.563 15.0944C14.1513 14.6827 13.4739 14.6827 13.0622 15.0944L6.59424 21.5624C6.18252 21.9741 6.18252 22.6515 6.59424 23.0632Z" fill="#8AA6AA"/>
</svg>
