<svg width="18" height="28" viewBox="0 0 18 28" fill="none" xmlns="http://www.w3.org/2000/svg">
<path d="M11.8334 6.91667C12.9606 6.91667 14.0416 7.36443 14.8386 8.16146C15.6356 8.95849 16.0834 10.0395 16.0834 11.1667V25.3333C16.0834 25.7091 15.9342 26.0694 15.6685 26.3351C15.4028 26.6007 15.0425 26.75 14.6667 26.75H3.33341C2.95769 26.75 2.59736 26.6007 2.33168 26.3351C2.066 26.0694 1.91675 25.7091 1.91675 25.3333V11.1667C1.91675 10.0395 2.36451 8.95849 3.16154 8.16146C3.95857 7.36443 5.03958 6.91667 6.16675 6.91667M11.8334 6.91667H6.16675M11.8334 6.91667V2.66667C11.8334 2.29094 11.6842 1.93061 11.4185 1.66493C11.1528 1.39926 10.7925 1.25 10.4167 1.25H7.58342C7.20769 1.25 6.84736 1.39926 6.58168 1.66493C6.316 1.93061 6.16675 2.29094 6.16675 2.66667V6.91667M6.16675 16.8333H11.8334M9.00008 14V19.6667" stroke="#8AA6AA" stroke-width="2" stroke-linecap="round" stroke-linejoin="round"/>
</svg>
