<svg width="30" height="32" viewBox="0 0 30 32" fill="none" xmlns="http://www.w3.org/2000/svg">
<path d="M27.7502 8.91602C26.3335 8.91602 26.3335 7.49935 26.3335 7.49935V6.08268H23.5002V8.91602H20.6668V7.49935C20.6668 5.04852 18.896 0.416016 12.1668 0.416016C5.43766 0.416016 3.66683 5.04852 3.66683 7.49935V25.916C3.66683 26.3835 3.52516 28.7493 0.833496 28.7493V31.5827C4.98433 31.5827 6.50016 28.1968 6.50016 25.916V7.49935C6.50016 7.32935 6.571 3.24935 12.1668 3.24935C17.5927 3.24935 17.8335 7.07435 17.8335 7.49935V8.91602H15.0002V6.08268H12.1668V7.49935C12.1668 7.49935 12.1668 8.91602 10.7502 8.91602C9.3335 8.91602 9.3335 10.3327 9.3335 10.3327V27.3327C9.3335 27.3327 9.3335 30.166 16.4168 30.166H22.0835C29.1668 30.166 29.1668 27.3327 29.1668 27.3327V10.3327C29.1668 10.3327 29.1668 8.91602 27.7502 8.91602ZM19.2502 26.4827C18.123 26.4827 17.042 26.0349 16.245 25.2379C15.4479 24.4409 15.0002 23.3599 15.0002 22.2327C15.0002 19.3993 19.2502 14.5827 19.2502 14.5827C19.2502 14.5827 23.5002 19.3993 23.5002 22.2327C23.5002 23.3599 23.0524 24.4409 22.2554 25.2379C21.4583 26.0349 20.3773 26.4827 19.2502 26.4827Z" fill="#8AA6AA"/>
</svg>
