<svg width="31" height="31" viewBox="0 0 31 31" fill="none" xmlns="http://www.w3.org/2000/svg">
<path d="M25.6276 0.414062L24.0834 3.82823L20.6693 5.3724L24.0834 6.91656L25.6276 10.3307L27.1859 6.91656L30.5859 5.3724L27.1859 3.82823L25.6276 0.414062ZM15.0026 1.83073C7.21094 1.83073 0.835938 8.20573 0.835938 15.9974V30.1641H29.1693V15.9974C29.1693 13.9149 28.7018 11.9316 27.8943 10.1466L26.1376 13.9999C26.2509 14.6516 26.3359 15.2891 26.3359 15.9974C26.3359 22.2732 21.2784 27.3307 15.0026 27.3307C8.72677 27.3307 3.66927 22.2732 3.66927 15.9974C3.66927 15.9407 3.66927 15.8699 3.66927 15.8132C5.49338 15.1299 7.15697 14.0777 8.55611 12.7225C9.95525 11.3672 11.0599 9.73798 11.8009 7.93656C13.1297 9.57015 14.8058 10.887 16.7075 11.7913C18.6092 12.6955 20.6885 13.1645 22.7943 13.1641C23.4245 13.1635 24.0539 13.1209 24.6784 13.0366L22.5818 8.41823L15.8526 5.3724L20.8534 3.10573C19.0684 2.29823 17.0851 1.83073 15.0026 1.83073ZM10.7526 15.6432C10.2829 15.6432 9.83253 15.8298 9.50044 16.1619C9.16834 16.494 8.98177 16.9444 8.98177 17.4141C8.98177 17.8837 9.16834 18.3341 9.50044 18.6662C9.83253 18.9983 10.2829 19.1849 10.7526 19.1849C10.9852 19.1849 11.2154 19.1391 11.4303 19.0501C11.6451 18.9611 11.8403 18.8307 12.0048 18.6662C12.1692 18.5018 12.2996 18.3066 12.3886 18.0917C12.4776 17.8769 12.5234 17.6466 12.5234 17.4141C12.5234 17.1815 12.4776 16.9512 12.3886 16.7364C12.2996 16.5215 12.1692 16.3263 12.0048 16.1619C11.8403 15.9975 11.6451 15.867 11.4303 15.778C11.2154 15.689 10.9852 15.6432 10.7526 15.6432ZM19.2526 15.6432C18.7829 15.6432 18.3325 15.8298 18.0004 16.1619C17.6683 16.494 17.4818 16.9444 17.4818 17.4141C17.4818 17.8837 17.6683 18.3341 18.0004 18.6662C18.3325 18.9983 18.7829 19.1849 19.2526 19.1849C19.7223 19.1849 20.1727 18.9983 20.5048 18.6662C20.8369 18.3341 21.0234 17.8837 21.0234 17.4141C21.0234 16.9444 20.8369 16.494 20.5048 16.1619C20.1727 15.8298 19.7223 15.6432 19.2526 15.6432Z" fill="#8AA6AA"/>
</svg>
