<svg width="20" height="26" viewBox="0 0 20 26" fill="none" xmlns="http://www.w3.org/2000/svg">
<path d="M9.29183 20.7909H9.61766L13.7869 13.4355H10.7085V8.04088H10.3827L6.21341 15.3962H9.29183V20.7909ZM10.0002 25.7492C7.16494 25.7492 4.80336 24.7755 2.91541 22.828C1.02747 20.8815 0.0834961 18.4553 0.0834961 15.5492C0.0834961 13.5149 0.904218 11.2652 2.54566 8.80021C4.18711 6.33521 6.67194 3.63032 10.0002 0.685547C13.3293 3.62938 15.8142 6.33427 17.4547 8.80021C19.0961 11.2652 19.9168 13.5149 19.9168 15.5492C19.9168 18.4553 18.9729 20.8815 17.0849 22.828C15.196 24.7755 12.8344 25.7492 10.0002 25.7492Z" fill="#8AA6AA"/>
</svg>
