<svg width="32" height="32" viewBox="0 0 32 32" fill="none" xmlns="http://www.w3.org/2000/svg">
<path d="M24.5824 31.5807H26.9341C28.1241 31.5807 29.1016 30.6599 29.2432 29.4982L31.5807 6.15156H24.4974V0.414062H21.7066V6.15156H14.6657L15.0907 9.46656C17.5132 10.1324 19.7799 11.3366 21.1399 12.6682C23.1799 14.6799 24.5824 16.7624 24.5824 20.1624V31.5807ZM0.414062 30.1641V28.7474H21.7066V30.1641C21.7066 30.9291 21.0691 31.5807 20.2474 31.5807H1.83073C1.05156 31.5807 0.414062 30.9291 0.414062 30.1641ZM21.7066 20.2474C21.7066 8.91406 0.414062 8.91406 0.414062 20.2474H21.7066ZM0.414062 23.0807H21.6641V25.9141H0.414062V23.0807Z" fill="#8AA6AA"/>
</svg>
