<svg width="28" height="28" viewBox="0 0 28 28" fill="none" xmlns="http://www.w3.org/2000/svg">
<path d="M2.97844 12.9943L12.9943 2.97844C16.3234 -0.336563 21.6926 -0.336563 25.0218 2.97844C28.3368 6.29344 28.3368 11.6768 25.0218 15.0059L15.0059 25.0218C11.6768 28.3368 6.29344 28.3368 2.97844 25.0218C-0.336563 21.6926 -0.336563 16.3234 2.97844 12.9943ZM4.9901 15.0059C3.5026 16.4793 3.00677 18.5901 3.51677 20.4743L12.0026 12.0026L18.0093 18.0093L23.0101 12.9943C25.2343 10.7843 25.2343 7.2001 23.0101 4.9901C20.8001 2.76594 17.2159 2.76594 15.0059 4.9901L4.9901 15.0059Z" fill="#8AA6AA"/>
</svg>
