<svg width="20" height="28" viewBox="0 0 20 28" fill="none" xmlns="http://www.w3.org/2000/svg">
<path d="M9.39437 0.99147C9.46919 0.904103 9.56202 0.833966 9.66651 0.785878C9.77099 0.73779 9.88465 0.712891 9.99967 0.712891C10.1147 0.712891 10.2283 0.73779 10.3328 0.785878C10.4373 0.833966 10.5302 0.904103 10.605 0.99147C12.7074 3.45049 19.5625 11.9518 19.5625 18.2491C19.5625 24.1174 15.8677 27.8116 10 27.8116C4.13234 27.8116 0.4375 24.1174 0.4375 18.2491C0.4375 11.9518 7.29262 3.45049 9.39437 0.99147ZM8.9375 24.3585C9.06513 24.3588 9.19096 24.3284 9.30441 24.2699C9.41785 24.2114 9.51559 24.1265 9.58939 24.0224C9.66319 23.9183 9.7109 23.798 9.72851 23.6715C9.74611 23.5451 9.73309 23.4163 9.69055 23.296C9.63621 23.139 9.53372 23.0031 9.39768 22.9077C9.26164 22.8124 9.09898 22.7623 8.93285 22.7648C7.87806 22.7625 6.86713 22.3424 6.12128 21.5966C5.37543 20.8507 4.95541 19.8398 4.95312 18.785C4.95555 18.6189 4.90552 18.4562 4.81013 18.3202C4.71475 18.1842 4.57888 18.0817 4.42188 18.0273C4.30154 17.9848 4.17275 17.9718 4.04634 17.9894C3.91992 18.007 3.79959 18.0547 3.69546 18.1285C3.59133 18.2023 3.50645 18.3 3.44796 18.4135C3.38948 18.5269 3.35909 18.6527 3.35938 18.7804C3.36096 20.2593 3.94916 21.6772 4.99492 22.723C6.04068 23.7687 7.45857 24.3569 8.9375 24.3585Z" fill="#8AA6AA"/>
</svg>
