<svg width="16" height="30" viewBox="0 0 16 30" fill="none" xmlns="http://www.w3.org/2000/svg">
<path d="M0.914062 0.835938V3.66927H2.33073V23.5026C2.33073 25.0055 2.92775 26.4468 3.99046 27.5095C5.05316 28.5722 6.4945 29.1693 7.9974 29.1693C9.50029 29.1693 10.9416 28.5722 12.0043 27.5095C13.067 26.4468 13.6641 25.0055 13.6641 23.5026V3.66927H15.0807V0.835938H0.914062ZM6.58073 20.6693C5.73073 20.6693 5.16406 20.1026 5.16406 19.2526C5.16406 18.4026 5.73073 17.8359 6.58073 17.8359C7.43073 17.8359 7.9974 18.4026 7.9974 19.2526C7.9974 20.1026 7.43073 20.6693 6.58073 20.6693ZM9.41406 15.0026C8.56406 15.0026 7.9974 14.4359 7.9974 13.5859C7.9974 12.7359 8.56406 12.1693 9.41406 12.1693C10.2641 12.1693 10.8307 12.7359 10.8307 13.5859C10.8307 14.4359 10.2641 15.0026 9.41406 15.0026ZM10.8307 7.91927H5.16406V3.66927H10.8307V7.91927Z" fill="#8AA6AA"/>
</svg>
