<svg width="18" height="24" viewBox="0 0 18 24" fill="none" xmlns="http://www.w3.org/2000/svg">
<path d="M9 23.3336C6.637 23.3336 4.62958 22.5077 2.97775 20.8558C1.32592 19.2031 0.5 17.1957 0.5 14.8336C0.5 12.8862 1.08697 11.1512 2.26092 9.62876C3.43581 8.10537 4.96769 7.10048 6.85658 6.61409C6.18603 6.47998 5.58867 6.22073 5.0645 5.83635C4.54033 5.45196 4.11061 4.97218 3.77533 4.39701C3.43911 3.8209 3.18647 3.19946 3.01742 2.53268C2.84836 1.8659 2.77422 1.1741 2.795 0.457262C3.59967 0.429873 4.36608 0.538484 5.09425 0.783095C5.82242 1.02865 6.47739 1.39321 7.05917 1.87676C7.64 2.35937 8.11506 2.92132 8.48433 3.5626C8.85361 4.20387 9.06753 4.92165 9.12608 5.71593C9.41508 5.01987 9.76453 4.36065 10.1744 3.73826C10.5834 3.11682 11.0594 2.53457 11.6024 1.99151C11.7346 1.85929 11.9018 1.79318 12.1039 1.79318C12.306 1.79318 12.4732 1.85929 12.6054 1.99151C12.7376 2.12373 12.8038 2.29043 12.8038 2.4916C12.8038 2.69371 12.7376 2.86087 12.6054 2.9931C12.1049 3.4946 11.6629 4.03576 11.2794 4.6166C10.896 5.19648 10.5824 5.81321 10.3387 6.46676C12.4165 6.78315 14.1293 7.73184 15.477 9.31284C16.8257 10.8938 17.5 12.7341 17.5 14.8336C17.5 17.1966 16.6741 19.204 15.0222 20.8558C13.3695 22.5077 11.3621 23.3336 9 23.3336Z" fill="#8AA6AA"/>
</svg>
