<svg width="132" height="45" viewBox="0 0 132 45" fill="none" xmlns="http://www.w3.org/2000/svg">
<path d="M21.902 38.032H11.342V27.472H0.98V17.308H11.342V6.748H21.902V17.308H32.264V27.472H21.902V38.032ZM68.3547 44.5H55.9467V14.14H44.1327V5.758H45.7827C50.6007 5.758 54.3627 4.768 56.8047 0.279999H68.3547V44.5ZM84.7376 44.5H72.3296V0.279999H89.1596L97.2776 18.628L101.634 30.046H102.492L106.65 18.628L114.372 0.279999H131.202V44.5H118.794V26.218L119.256 18.826H118.398L115.89 26.218L109.29 41.86H94.2416L87.6416 26.218L85.1336 18.826H84.2756L84.7376 26.218V44.5Z" fill="#111111"/>
<path d="M21.902 38.032V39.032H22.902V38.032H21.902ZM11.342 38.032H10.342V39.032H11.342V38.032ZM11.342 27.472H12.342V26.472H11.342V27.472ZM0.98 27.472H-0.0199999V28.472H0.98V27.472ZM0.98 17.308V16.308H-0.0199999V17.308H0.98ZM11.342 17.308V18.308H12.342V17.308H11.342ZM11.342 6.748V5.748H10.342V6.748H11.342ZM21.902 6.748H22.902V5.748H21.902V6.748ZM21.902 17.308H20.902V18.308H21.902V17.308ZM32.264 17.308H33.264V16.308H32.264V17.308ZM32.264 27.472V28.472H33.264V27.472H32.264ZM21.902 27.472V26.472H20.902V27.472H21.902ZM21.902 37.032H11.342V39.032H21.902V37.032ZM12.342 38.032V27.472H10.342V38.032H12.342ZM11.342 26.472H0.98V28.472H11.342V26.472ZM1.98 27.472V17.308H-0.0199999V27.472H1.98ZM0.98 18.308H11.342V16.308H0.98V18.308ZM12.342 17.308V6.748H10.342V17.308H12.342ZM11.342 7.748H21.902V5.748H11.342V7.748ZM20.902 6.748V17.308H22.902V6.748H20.902ZM21.902 18.308H32.264V16.308H21.902V18.308ZM31.264 17.308V27.472H33.264V17.308H31.264ZM32.264 26.472H21.902V28.472H32.264V26.472ZM20.902 27.472V38.032H22.902V27.472H20.902ZM68.3547 44.5V45.5H69.3547V44.5H68.3547ZM55.9467 44.5H54.9467V45.5H55.9467V44.5ZM55.9467 14.14H56.9467V13.14H55.9467V14.14ZM44.1327 14.14H43.1327V15.14H44.1327V14.14ZM44.1327 5.758V4.758H43.1327V5.758H44.1327ZM56.8047 0.279999V-0.720001H56.2103L55.9263 -0.197948L56.8047 0.279999ZM68.3547 0.279999H69.3547V-0.720001H68.3547V0.279999ZM68.3547 43.5H55.9467V45.5H68.3547V43.5ZM56.9467 44.5V14.14H54.9467V44.5H56.9467ZM55.9467 13.14H44.1327V15.14H55.9467V13.14ZM45.1327 14.14V5.758H43.1327V14.14H45.1327ZM44.1327 6.758H45.7827V4.758H44.1327V6.758ZM45.7827 6.758C48.2451 6.758 50.5516 6.50797 52.5855 5.61815C54.6512 4.71441 56.3636 3.18284 57.683 0.757946L55.9263 -0.197948C54.8037 1.86515 53.4141 3.07258 51.7838 3.78584C50.1217 4.51303 48.1382 4.758 45.7827 4.758V6.758ZM56.8047 1.28H68.3547V-0.720001H56.8047V1.28ZM67.3547 0.279999V44.5H69.3547V0.279999H67.3547ZM84.7376 44.5V45.5H85.7376V44.5H84.7376ZM72.3296 44.5H71.3296V45.5H72.3296V44.5ZM72.3296 0.279999V-0.720001H71.3296V0.279999H72.3296ZM89.1596 0.279999L90.0741 -0.124613L89.8107 -0.720001H89.1596V0.279999ZM97.2776 18.628L98.2119 18.2716L98.2026 18.2472L98.1921 18.2234L97.2776 18.628ZM101.634 30.046L100.699 30.4024L100.945 31.046H101.634V30.046ZM102.492 30.046V31.046H103.192L103.431 30.3882L102.492 30.046ZM106.65 18.628L105.728 18.2401L105.718 18.2627L105.71 18.2858L106.65 18.628ZM114.372 0.279999V-0.720001H113.708L113.45 -0.10791L114.372 0.279999ZM131.202 0.279999H132.202V-0.720001H131.202V0.279999ZM131.202 44.5V45.5H132.202V44.5H131.202ZM118.794 44.5H117.794V45.5H118.794V44.5ZM118.794 26.218L117.796 26.1556L117.794 26.1868V26.218H118.794ZM119.256 18.826L120.254 18.8884L120.32 17.826H119.256V18.826ZM118.398 18.826V17.826H117.681L117.451 18.5047L118.398 18.826ZM115.89 26.218L116.811 26.6068L116.825 26.5735L116.837 26.5393L115.89 26.218ZM109.29 41.86V42.86H109.953L110.211 42.2488L109.29 41.86ZM94.2416 41.86L93.3203 42.2488L93.5782 42.86H94.2416V41.86ZM87.6416 26.218L86.6946 26.5393L86.7062 26.5735L86.7203 26.6068L87.6416 26.218ZM85.1336 18.826L86.0806 18.5047L85.8503 17.826H85.1336V18.826ZM84.2756 18.826V17.826H83.2112L83.2776 18.8884L84.2756 18.826ZM84.7376 26.218H85.7376V26.1868L85.7357 26.1556L84.7376 26.218ZM84.7376 43.5H72.3296V45.5H84.7376V43.5ZM73.3296 44.5V0.279999H71.3296V44.5H73.3296ZM72.3296 1.28H89.1596V-0.720001H72.3296V1.28ZM88.2451 0.68461L96.3631 19.0326L98.1921 18.2234L90.0741 -0.124613L88.2451 0.68461ZM96.3433 18.9844L100.699 30.4024L102.568 29.6896L98.2119 18.2716L96.3433 18.9844ZM101.634 31.046H102.492V29.046H101.634V31.046ZM103.431 30.3882L107.589 18.9702L105.71 18.2858L101.552 29.7038L103.431 30.3882ZM107.571 19.0159L115.293 0.667908L113.45 -0.10791L105.728 18.2401L107.571 19.0159ZM114.372 1.28H131.202V-0.720001H114.372V1.28ZM130.202 0.279999V44.5H132.202V0.279999H130.202ZM131.202 43.5H118.794V45.5H131.202V43.5ZM119.794 44.5V26.218H117.794V44.5H119.794ZM119.792 26.2804L120.254 18.8884L118.258 18.7636L117.796 26.1556L119.792 26.2804ZM119.256 17.826H118.398V19.826H119.256V17.826ZM117.451 18.5047L114.943 25.8967L116.837 26.5393L119.345 19.1473L117.451 18.5047ZM114.968 25.8292L108.368 41.4712L110.211 42.2488L116.811 26.6068L114.968 25.8292ZM109.29 40.86H94.2416V42.86H109.29V40.86ZM95.163 41.4712L88.563 25.8292L86.7203 26.6068L93.3203 42.2488L95.163 41.4712ZM88.5886 25.8967L86.0806 18.5047L84.1866 19.1473L86.6946 26.5393L88.5886 25.8967ZM85.1336 17.826H84.2756V19.826H85.1336V17.826ZM83.2776 18.8884L83.7396 26.2804L85.7357 26.1556L85.2737 18.7636L83.2776 18.8884ZM83.7376 26.218V44.5H85.7376V26.218H83.7376Z" fill="#3659FA"/>
</svg>
