<svg width="44" height="44" viewBox="0 0 44 44" fill="none" xmlns="http://www.w3.org/2000/svg">
<g opacity="0.12">
<path d="M33.4508 22.3226C37.5627 22.3226 40.3337 25.2346 40.3337 29.5493C40.3337 33.4319 37.1489 36.6666 32.8353 36.6666C28.1106 36.6666 24.6194 32.7839 24.6194 26.8533C24.6194 13.3733 34.2732 7.98125 40.3337 7.33325V13.2639C36.2244 14.0186 31.6044 18.2239 31.3975 22.8639C31.6044 22.7573 32.4241 22.3226 33.4508 22.3226ZM12.501 22.3226C16.6077 22.3226 19.3813 25.2346 19.3813 29.5493C19.3813 33.4319 16.1965 36.6666 11.8829 36.6666C7.15818 36.6666 3.66699 32.7839 3.66699 26.8533C3.66699 13.3733 13.3208 7.98125 19.3813 7.33325V13.2639C15.272 14.0186 10.652 18.2239 10.4451 22.8639C10.652 22.7573 11.4718 22.3226 12.501 22.3226Z" fill="#3E66DF"/>
</g>
</svg>
