<svg width="19" height="18" viewBox="0 0 19 18" fill="none" xmlns="http://www.w3.org/2000/svg">
<path d="M16.0353 11.7282C16.0353 11.7282 14.0556 13.8749 14.0556 15.1907C14.0556 15.7154 14.2642 16.2187 14.6354 16.5897C15.0067 16.9608 15.5102 17.1692 16.0353 17.1692C16.5603 17.1692 17.0639 16.9608 17.4351 16.5897C17.8064 16.2187 18.015 15.7154 18.015 15.1907C18.015 13.8749 16.0353 11.7282 16.0353 11.7282ZM2.38534 10.2443L7.12669 5.50568L11.868 10.2443M13.6201 9.19567L4.77086 0.351562L3.37519 1.74644L5.73101 4.10091L0.633318 9.19567C0.0493106 9.74966 0.0493106 10.7093 0.633318 11.2929L6.07746 16.7339C6.36451 17.0208 6.75055 17.1692 7.12669 17.1692C7.50283 17.1692 7.88887 17.0208 8.17593 16.7339L13.6201 11.2929C14.2041 10.7093 14.2041 9.74966 13.6201 9.19567Z" fill="white"/>
</svg>
