<svg width="7" height="21" viewBox="0 0 7 21" fill="none" xmlns="http://www.w3.org/2000/svg">
<path d="M6.26703 7.85807C4.78227 6.1862 4.88125 2.33792 4.88125 2.33792H5.87109V0.359375H1.91172V2.33792H2.90156C2.90156 2.33792 3.00055 6.1862 1.51578 7.85807C1.32872 8.04131 1.17991 8.25983 1.07796 8.50097C0.976016 8.74211 0.922962 9.00106 0.921875 9.26284V18.1663C0.921875 18.691 1.13045 19.1943 1.50171 19.5653C1.87298 19.9364 2.37652 20.1449 2.90156 20.1449H4.88125C5.4063 20.1449 5.90984 19.9364 6.2811 19.5653C6.65236 19.1943 6.86094 18.691 6.86094 18.1663V9.26284C6.85985 9.00106 6.8068 8.74211 6.70485 8.50097C6.6029 8.25983 6.45409 8.04131 6.26703 7.85807ZM4.88125 18.1663H2.90156V9.26284L3.00055 9.17381C3.3586 8.75077 3.65823 8.28162 3.89141 7.77893C4.12459 8.28162 4.42421 8.75077 4.78227 9.17381L4.88125 9.26284V18.1663Z" fill="white"/>
</svg>
