<svg width="200" height="435" viewBox="0 0 200 435" fill="none" xmlns="http://www.w3.org/2000/svg">
<path d="M65.0664 96.1256C62.3197 96.1256 58.5693 96.0204 54.819 96.1256C51.5441 96.2834 49.3784 95.1264 50.0651 91.6556C52.2307 80.9801 46.6845 74.5117 38.3388 69.4106C32.8454 66.0449 30.6269 61.4697 31.2607 54.9487C31.8418 48.6907 31.5776 42.3275 31.3135 36.0168C31.1551 32.1253 32.7398 30.0745 36.4901 29.5486C44.6774 28.3916 52.8118 27.0243 61.0519 26.2355C65.2248 25.8148 67.0735 24.5 66.7038 20.1352C66.3869 16.2962 66.5453 12.4046 66.7038 8.56565C66.8094 6.14658 65.7001 2.57063 69.873 2.88616C70.771 2.93875 72.0387 6.30447 72.0387 8.19765C72.1444 43.8001 72.1972 79.3498 72.0387 114.952C72.0387 117.319 70.5597 120.369 68.711 121.894C49.5369 138.039 32.0531 155.708 17.1047 175.797C14.8334 178.9 12.3507 182.108 11.1887 185.684C9.81531 189.681 8.70609 194.256 9.39276 198.305C16.4708 239.324 17.58 280.553 14.5692 321.94C13.46 337.296 11.3471 352.6 8.86452 367.798C8.01938 373.214 9.44556 376.685 13.9882 378.263C24.7109 382.102 35.3808 386.467 46.5261 388.57C82.286 395.354 118.204 395.985 154.07 388.938C165.849 386.624 177.47 383.785 187.612 376.895C190.253 375.107 191.784 373.162 191.045 369.48C183.861 334.72 182.752 299.538 184.442 264.303C185.446 243.689 187.928 223.127 190.464 202.617C191.52 194.151 190.358 186.788 185.868 179.584C176.044 163.965 163.05 151.133 149.686 138.67C143.4 132.832 136.533 127.573 130.248 121.684C128.452 120.001 126.656 117.161 126.656 114.794C126.445 79.0343 126.445 43.2742 126.603 7.51398C126.603 5.83114 128.082 4.20084 128.874 2.51801C129.931 4.14825 131.621 5.72592 131.832 7.46134C132.255 11.6158 132.202 15.8755 131.938 20.0825C131.674 24.1319 133.311 25.6569 137.273 26.0251C145.143 26.7613 152.961 27.9709 160.831 28.9175C166.166 29.5486 168.86 31.8623 168.385 37.8048C167.856 44.7465 168.543 51.846 168.068 58.8402C167.909 61.4697 166.113 64.0991 164.634 66.4656C163.736 67.8855 162.099 68.9374 160.62 69.8314C152.644 74.8273 147.467 81.1379 149.58 91.34C150.373 95.0738 148.048 96.1781 144.562 96.0203C140.601 95.8626 136.639 96.0203 133.681 96.0203C134.473 100.227 135.847 103.698 135.635 107.064C135.266 112.744 137.326 116.372 141.71 119.948C160.673 135.514 177.523 153.079 191.626 173.22C198.545 183.054 200.87 193.046 198.81 205.299C189.513 260.044 190.147 314.841 199.76 369.533C200.87 375.791 198.017 380.051 193.475 383.574C184.918 390.2 174.934 393.987 164.476 395.512C145.883 398.246 127.184 400.192 108.485 401.98C103.837 402.401 101.988 403.453 102.147 408.343C102.464 417.967 102.305 427.643 102.041 437.267C102.041 438.897 100.298 440.422 99.4001 442C98.4493 440.475 96.6534 438.95 96.6534 437.372C96.3893 427.749 96.3365 418.072 96.6534 408.449C96.8119 403.768 95.3329 402.401 90.4733 401.928C71.9331 400.192 53.2872 398.615 35.0111 395.301C25.5561 393.566 16.4708 388.886 7.80811 384.468C1.20546 381.103 -1.013 375.213 0.413174 367.167C10.1323 310.687 9.65689 254.207 0.254717 197.674C-0.537601 192.888 0.730079 187.051 2.94857 182.634C11.5056 165.49 24.4996 151.554 38.0218 138.196C45.0999 131.15 52.7061 124.576 60.3124 118.055C63.0063 115.794 64.1155 113.427 64.1155 109.956C64.1155 105.644 64.7494 101.332 65.2248 96.0203L65.0664 96.1256Z" fill="#8AA6AA"/>
</svg>
