<svg width="24" height="25" viewBox="0 0 24 25" fill="none" xmlns="http://www.w3.org/2000/svg">
<g clip-path="url(#clip0_501_128573)">
<path d="M19.0353 11.7265C19.0353 11.7265 17.0556 13.8732 17.0556 15.189C17.0556 15.7137 17.2642 16.217 17.6354 16.588C18.0067 16.9591 18.5102 17.1675 19.0353 17.1675C19.5603 17.1675 20.0639 16.9591 20.4351 16.588C20.8064 16.217 21.015 15.7137 21.015 15.189C21.015 13.8732 19.0353 11.7265 19.0353 11.7265ZM5.38534 10.2426L10.1267 5.50397L14.868 10.2426M16.6201 9.19396L7.77086 0.349854L6.37519 1.74473L8.73101 4.0992L3.63332 9.19396C3.04931 9.74796 3.04931 10.7076 3.63332 11.2912L9.07746 16.7322C9.36451 17.0191 9.75055 17.1675 10.1267 17.1675C10.5028 17.1675 10.8889 17.0191 11.1759 16.7322L16.6201 11.2912C17.2041 10.7076 17.2041 9.74796 16.6201 9.19396Z" fill="#8AA6AA"/>
</g>
<defs>
<clipPath id="clip0_501_128573">
<rect width="23.7563" height="23.7426" fill="white" transform="translate(0.228516 0.349854)"/>
</clipPath>
</defs>
</svg>
