<svg width="24" height="25" viewBox="0 0 24 25" fill="none" xmlns="http://www.w3.org/2000/svg">
<path d="M14.2685 9.85929C12.7837 8.18742 12.8827 4.33914 12.8827 4.33914H13.8726V2.3606H9.91318V4.33914H10.903C10.903 4.33914 11.002 8.18742 9.51725 9.85929C9.33019 10.0425 9.18138 10.2611 9.07943 10.5022C8.97748 10.7433 8.92443 11.0023 8.92334 11.2641V20.1675C8.92334 20.6923 9.13191 21.1955 9.50318 21.5666C9.87444 21.9376 10.378 22.1461 10.903 22.1461H12.8827C13.4078 22.1461 13.9113 21.9376 14.2826 21.5666C14.6538 21.1955 14.8624 20.6923 14.8624 20.1675V11.2641C14.8613 11.0023 14.8083 10.7433 14.7063 10.5022C14.6044 10.2611 14.4556 10.0425 14.2685 9.85929ZM12.8827 20.1675H10.903V11.2641L11.002 11.175C11.3601 10.752 11.6597 10.2828 11.8929 9.78015C12.126 10.2828 12.4257 10.752 12.7837 11.175L12.8827 11.2641V20.1675Z" fill="#8AA6AA"/>
</svg>
