<svg width="425" height="423" viewBox="0 0 425 423" fill="none" xmlns="http://www.w3.org/2000/svg">
<g clip-path="url(#clip0_501_121926)">
<rect x="0.920898" y="0.0505371" width="424" height="422" rx="20" fill="#111111"/>
<g filter="url(#filter0_f_501_121926)">
<circle cx="375" cy="373" r="162" fill="#152468"/>
</g>
<rect x="184" y="133" width="58" height="158" rx="29" fill="#8AA6AA"/>
<rect x="113" y="158" width="58" height="133" rx="29" fill="white"/>
<rect x="395" y="82" width="58" height="209" rx="29" fill="white"/>
<rect x="42" y="127" width="58" height="164" rx="29" fill="white"/>
<rect x="324" y="90" width="58" height="201" rx="29" fill="white"/>
<rect x="-28" y="202" width="58" height="89" rx="29" fill="white"/>
<rect x="254" y="115" width="58" height="176" rx="29" fill="white"/>
<rect x="6" y="315" width="413" height="101" rx="15" fill="white"/>
<path d="M31.32 357H27.12V338.24H32.804L37.2 347.48L38.964 351.876H39.272L40.98 347.48L45.236 338.24H50.948V357H46.748V347.48L46.888 344.54H46.58L45.488 347.48L41.568 355.88H36.472L32.552 347.48L31.46 344.54H31.152L31.32 347.48V357ZM57.4633 357.28C54.4393 357.28 52.6193 355.88 52.6193 353.528C52.6193 351.456 54.1593 350.168 57.1553 349.86L63.1753 349.244V348.712C63.1753 346.892 62.3633 346.388 60.1233 346.388C57.9953 346.388 57.1273 346.948 57.1273 348.544V348.656H52.8993V348.572C52.8993 345.1 55.8113 342.692 60.4313 342.692C65.1073 342.692 67.3193 345.1 67.3193 348.768V357H63.3993V353.78H63.1753C62.5313 355.964 60.5713 357.28 57.4633 357.28ZM56.8473 353.248C56.8473 354.004 57.4353 354.312 58.6673 354.312C61.5233 354.312 63.0633 353.64 63.1753 351.652L58.3033 352.212C57.2953 352.296 56.8473 352.576 56.8473 353.248ZM76.9241 357.28C72.1081 357.28 69.0281 354.424 69.0281 350C69.0281 345.52 72.1081 342.692 76.9241 342.692C81.4321 342.692 84.5121 345.1 84.5121 348.74V349.132H80.3401V348.908C80.3401 347.116 79.0241 346.472 76.8401 346.472C74.3481 346.472 73.2001 347.396 73.2001 350C73.2001 352.576 74.3481 353.5 76.8401 353.5C79.0241 353.5 80.3401 352.856 80.3401 351.064V350.84H84.5121V351.232C84.5121 354.844 81.4321 357.28 76.9241 357.28ZM90.5192 357H86.3192V338.24H90.5192V347.256H90.7432C91.1912 344.876 92.8432 342.692 96.4272 342.692C100.207 342.692 102.055 345.156 102.055 348.404V357H97.8552V349.664C97.8552 347.312 96.8472 346.472 94.2152 346.472C91.3872 346.472 90.5192 347.62 90.5192 349.972V357ZM108.375 341.544H104.175V338.24H108.375V341.544ZM108.375 357H104.175V342.972H108.375V357ZM114.773 357H110.573V342.972H114.465V347.284H114.717C115.081 344.932 116.761 342.692 120.429 342.692C124.265 342.692 126.085 345.156 126.085 348.264V357H121.885V349.664C121.885 347.424 120.961 346.472 118.385 346.472C115.725 346.472 114.773 347.536 114.773 349.916V357ZM135.658 357.28C130.982 357.28 127.79 354.984 127.79 350C127.79 345.52 130.954 342.692 135.574 342.692C140.166 342.692 143.218 345.1 143.218 349.496C143.218 350 143.162 350.364 143.106 350.84H131.682C131.794 352.996 132.802 353.92 135.518 353.92C138.01 353.92 138.878 353.276 138.878 352.072V351.792H143.078V352.1C143.078 355.152 140.11 357.28 135.658 357.28ZM135.49 345.968C132.998 345.968 131.934 346.808 131.738 348.628H139.186C139.074 346.78 137.954 345.968 135.49 345.968ZM149.199 357H144.999V342.972H148.891V346.696H149.143C149.535 344.428 151.019 342.692 153.847 342.692C156.983 342.692 158.271 344.848 158.271 347.592V349.916H154.071V348.46C154.071 346.92 153.455 346.248 151.747 346.248C149.871 346.248 149.199 347.116 149.199 348.88V357ZM162.48 361.76H160.184V357.952H163.628C164.664 357.952 165.112 357.672 165.392 357.056L158.532 342.972H163.292L166.26 349.384L167.436 352.688H167.716L168.836 349.356L171.496 342.972H176.172L169.228 358.008C167.884 360.948 166.008 361.76 162.48 361.76ZM188.587 357.28C183.855 357.28 181.251 355.432 181.251 352.184V352.1H185.451V352.352C185.451 353.612 186.235 353.948 188.615 353.948C190.855 353.948 191.387 353.584 191.387 352.744C191.387 351.96 190.967 351.736 189.315 351.512L185.367 351.036C182.567 350.728 180.999 349.468 180.999 347.116C180.999 344.652 183.099 342.692 187.915 342.692C192.507 342.692 195.111 344.428 195.111 347.844V347.928H190.911V347.76C190.911 346.612 190.351 346.024 187.775 346.024C185.675 346.024 185.143 346.388 185.143 347.284C185.143 348.012 185.535 348.32 187.383 348.544L190.379 348.908C194.131 349.328 195.531 350.588 195.531 352.912C195.531 355.544 192.927 357.28 188.587 357.28ZM204.701 357.28C199.913 357.28 196.693 354.424 196.693 350C196.693 345.52 199.913 342.692 204.701 342.692C209.489 342.692 212.709 345.52 212.709 350C212.709 354.424 209.489 357.28 204.701 357.28ZM204.701 353.556C207.529 353.556 208.537 352.464 208.537 350C208.537 347.536 207.529 346.388 204.701 346.388C201.845 346.388 200.865 347.536 200.865 350C200.865 352.464 201.845 353.556 204.701 353.556ZM218.625 357H214.425V338.24H218.625V357ZM227.095 357.28C222.727 357.28 220.319 354.424 220.319 350C220.319 345.52 222.699 342.692 226.871 342.692C230.203 342.692 231.911 344.344 232.387 346.696H232.639V338.24H236.839V357H232.919V353.108H232.695C232.163 355.88 230.315 357.28 227.095 357.28ZM224.575 350C224.575 352.548 225.835 353.444 228.523 353.444C231.183 353.444 232.639 352.52 232.639 350.084V349.86C232.639 347.424 231.211 346.528 228.523 346.528C225.835 346.528 224.575 347.424 224.575 350ZM250.858 357.28C246.07 357.28 242.85 354.424 242.85 350C242.85 345.52 246.07 342.692 250.858 342.692C255.646 342.692 258.866 345.52 258.866 350C258.866 354.424 255.646 357.28 250.858 357.28ZM250.858 353.556C253.686 353.556 254.694 352.464 254.694 350C254.694 347.536 253.686 346.388 250.858 346.388C248.002 346.388 247.022 347.536 247.022 350C247.022 352.464 248.002 353.556 250.858 353.556ZM271.025 357H265.845L259.461 342.972H264.137L268.337 352.912H268.617L272.845 342.972H277.437L271.025 357ZM285.994 357.28C281.318 357.28 278.126 354.984 278.126 350C278.126 345.52 281.29 342.692 285.91 342.692C290.502 342.692 293.554 345.1 293.554 349.496C293.554 350 293.498 350.364 293.442 350.84H282.018C282.13 352.996 283.138 353.92 285.854 353.92C288.346 353.92 289.214 353.276 289.214 352.072V351.792H293.414V352.1C293.414 355.152 290.446 357.28 285.994 357.28ZM285.826 345.968C283.334 345.968 282.27 346.808 282.074 348.628H289.522C289.41 346.78 288.29 345.968 285.826 345.968ZM299.535 357H295.335V342.972H299.227V346.696H299.479C299.871 344.428 301.355 342.692 304.183 342.692C307.319 342.692 308.607 344.848 308.607 347.592V349.916H304.407V348.46C304.407 346.92 303.791 346.248 302.083 346.248C300.207 346.248 299.535 347.116 299.535 348.88V357ZM29.808 395.76H27.512V391.952H30.956C31.992 391.952 32.44 391.672 32.72 391.056L25.86 376.972H30.62L33.588 383.384L34.764 386.688H35.044L36.164 383.356L38.824 376.972H43.5L36.556 392.008C35.212 394.948 33.336 395.76 29.808 395.76ZM51.9586 391.28C47.2826 391.28 44.0906 388.984 44.0906 384C44.0906 379.52 47.2546 376.692 51.8746 376.692C56.4666 376.692 59.5186 379.1 59.5186 383.496C59.5186 384 59.4626 384.364 59.4066 384.84H47.9826C48.0946 386.996 49.1026 387.92 51.8186 387.92C54.3106 387.92 55.1786 387.276 55.1786 386.072V385.792H59.3786V386.1C59.3786 389.152 56.4106 391.28 51.9586 391.28ZM51.7906 379.968C49.2986 379.968 48.2346 380.808 48.0386 382.628H55.4866C55.3746 380.78 54.2546 379.968 51.7906 379.968ZM65.6117 391.28C62.5877 391.28 60.7677 389.88 60.7677 387.528C60.7677 385.456 62.3077 384.168 65.3037 383.86L71.3237 383.244V382.712C71.3237 380.892 70.5117 380.388 68.2717 380.388C66.1437 380.388 65.2757 380.948 65.2757 382.544V382.656H61.0477V382.572C61.0477 379.1 63.9597 376.692 68.5797 376.692C73.2557 376.692 75.4677 379.1 75.4677 382.768V391H71.5477V387.78H71.3237C70.6797 389.964 68.7197 391.28 65.6117 391.28ZM64.9957 387.248C64.9957 388.004 65.5837 388.312 66.8157 388.312C69.6717 388.312 71.2117 387.64 71.3237 385.652L66.4517 386.212C65.4437 386.296 64.9957 386.576 64.9957 387.248ZM81.7966 391H77.5966V376.972H81.4886V380.696H81.7406C82.1326 378.428 83.6166 376.692 86.4446 376.692C89.5806 376.692 90.8686 378.848 90.8686 381.592V383.916H86.6686V382.46C86.6686 380.92 86.0526 380.248 84.3446 380.248C82.4686 380.248 81.7966 381.116 81.7966 382.88V391ZM99.4735 391.28C94.7415 391.28 92.1375 389.432 92.1375 386.184V386.1H96.3375V386.352C96.3375 387.612 97.1215 387.948 99.5015 387.948C101.742 387.948 102.274 387.584 102.274 386.744C102.274 385.96 101.854 385.736 100.202 385.512L96.2535 385.036C93.4535 384.728 91.8855 383.468 91.8855 381.116C91.8855 378.652 93.9855 376.692 98.8015 376.692C103.394 376.692 105.998 378.428 105.998 381.844V381.928H101.798V381.76C101.798 380.612 101.238 380.024 98.6615 380.024C96.5615 380.024 96.0295 380.388 96.0295 381.284C96.0295 382.012 96.4215 382.32 98.2695 382.544L101.266 382.908C105.018 383.328 106.418 384.588 106.418 386.912C106.418 389.544 103.814 391.28 99.4735 391.28Z" fill="#111111"/>
<path d="M348.5 347.667H378.834V356.333H385.334L391.834 365V375.833H387.5C387.5 377.557 386.816 379.21 385.597 380.429C384.378 381.648 382.724 382.333 381 382.333C379.276 382.333 377.623 381.648 376.404 380.429C375.185 379.21 374.5 377.557 374.5 375.833H361.5C361.5 377.557 360.816 379.21 359.597 380.429C358.378 381.648 356.724 382.333 355 382.333C353.276 382.333 351.623 381.648 350.404 380.429C349.185 379.21 348.5 377.557 348.5 375.833H344.167V352C344.167 350.851 344.624 349.748 345.436 348.936C346.249 348.123 347.351 347.667 348.5 347.667ZM378.834 359.583V365H388.519L384.25 359.583H378.834ZM355 372.583C354.138 372.583 353.312 372.926 352.702 373.535C352.093 374.145 351.75 374.971 351.75 375.833C351.75 376.695 352.093 377.522 352.702 378.131C353.312 378.741 354.138 379.083 355 379.083C355.862 379.083 356.689 378.741 357.298 378.131C357.908 377.522 358.25 376.695 358.25 375.833C358.25 374.971 357.908 374.145 357.298 373.535C356.689 372.926 355.862 372.583 355 372.583ZM381 372.583C380.138 372.583 379.312 372.926 378.702 373.535C378.093 374.145 377.75 374.971 377.75 375.833C377.75 376.695 378.093 377.522 378.702 378.131C379.312 378.741 380.138 379.083 381 379.083C381.862 379.083 382.689 378.741 383.298 378.131C383.908 377.522 384.25 376.695 384.25 375.833C384.25 374.971 383.908 374.145 383.298 373.535C382.689 372.926 381.862 372.583 381 372.583ZM359.334 369.333L372.334 356.333L369.279 353.257L359.334 363.202L354.805 358.673L351.75 361.75L359.334 369.333Z" fill="#8AA6AA"/>
<rect x="188" y="90" width="54.9459" height="31.1892" rx="15.5946" fill="white" fill-opacity="0.2"/>
<path d="M208.446 112.802C203.692 112.802 201.679 110.644 201.679 105.579C201.679 101.095 204.045 98.4801 208.28 98.4801C211.746 98.4801 214.133 100.203 214.133 103.026V103.192H211.663V103.026C211.663 101.552 210.75 100.597 208.28 100.597C205.208 100.597 204.066 101.988 204.066 105.288V106.388H204.253C204.751 105.039 206.474 103.981 209.11 103.981C212.535 103.981 214.486 105.537 214.486 108.298C214.486 111.038 212.327 112.802 208.446 112.802ZM208.321 110.664C211.082 110.664 212.161 109.834 212.161 108.132C212.161 106.409 211.102 105.579 208.342 105.579C205.623 105.579 204.336 106.471 204.336 108.049C204.336 109.793 205.581 110.664 208.321 110.664ZM226.784 112.595H224.563V109.772H215.679V108.215L224.189 98.6877H226.784V107.758H229.171V109.772H226.784V112.595ZM218.772 107.758H224.563V101.303H224.397L218.772 107.592V107.758Z" fill="white"/>
<path d="M63.33 273H55.476V272.006C55.476 270.27 56.162 269.402 58.094 268.744L60.334 267.974C61.454 267.568 61.846 267.19 61.846 266.364C61.846 265.37 61.202 264.866 59.522 264.866C57.646 264.866 56.946 265.524 56.946 266.756V266.924H55.462V266.784C55.462 265.048 56.652 263.48 59.578 263.48C62.238 263.48 63.358 264.74 63.358 266.392C63.358 267.932 62.364 268.744 60.712 269.248L58.738 269.85C57.478 270.284 57.044 270.732 57.044 271.796L59.312 271.642H63.33V273ZM68.7053 273.14C65.8773 273.14 64.1973 271.292 64.1973 268.31C64.1973 265.342 65.8773 263.48 68.7053 263.48C71.5333 263.48 73.2133 265.342 73.2133 268.31C73.2133 271.292 71.5333 273.14 68.7053 273.14ZM68.7053 271.684C70.7073 271.684 71.6033 270.648 71.6033 268.31C71.6033 265.972 70.7073 264.936 68.7053 264.936C66.7033 264.936 65.7933 265.972 65.7933 268.31C65.7933 270.648 66.7033 271.684 68.7053 271.684ZM77.5828 273H76.0708V265.86H73.7748V264.782H74.2228C75.2588 264.782 75.8468 264.516 76.2528 263.62H77.5828V273ZM82.9032 273.14C80.2572 273.14 78.6052 272.258 78.6052 270.438C78.6052 269.15 79.5012 268.38 80.8872 268.086V267.974C79.5992 267.778 78.8712 267.008 78.8712 265.93C78.8712 264.46 80.2432 263.48 82.9032 263.48C85.5632 263.48 86.9352 264.46 86.9352 265.93C86.9352 267.008 86.2212 267.778 84.9052 267.974V268.086C86.3612 268.38 87.2012 269.15 87.2012 270.438C87.2012 272.258 85.5212 273.14 82.9032 273.14ZM82.9032 267.61C84.7232 267.61 85.4372 267.176 85.4372 266.266C85.4372 265.398 84.8632 264.908 82.9032 264.908C80.9572 264.908 80.3832 265.398 80.3832 266.266C80.3832 267.176 81.0972 267.61 82.9032 267.61ZM82.9032 271.712C84.9332 271.712 85.6752 271.25 85.6752 270.158C85.6752 269.136 84.9332 268.646 82.9032 268.646C80.8732 268.646 80.1312 269.136 80.1312 270.158C80.1312 271.25 80.8592 271.712 82.9032 271.712Z" fill="#8AA6AA"/>
<path d="M134.33 273H126.476V272.006C126.476 270.27 127.162 269.402 129.094 268.744L131.334 267.974C132.454 267.568 132.846 267.19 132.846 266.364C132.846 265.37 132.202 264.866 130.522 264.866C128.646 264.866 127.946 265.524 127.946 266.756V266.924H126.462V266.784C126.462 265.048 127.652 263.48 130.578 263.48C133.238 263.48 134.358 264.74 134.358 266.392C134.358 267.932 133.364 268.744 131.712 269.248L129.738 269.85C128.478 270.284 128.044 270.732 128.044 271.796L130.312 271.642H134.33V273ZM139.705 273.14C136.877 273.14 135.197 271.292 135.197 268.31C135.197 265.342 136.877 263.48 139.705 263.48C142.533 263.48 144.213 265.342 144.213 268.31C144.213 271.292 142.533 273.14 139.705 273.14ZM139.705 271.684C141.707 271.684 142.603 270.648 142.603 268.31C142.603 265.972 141.707 264.936 139.705 264.936C137.703 264.936 136.793 265.972 136.793 268.31C136.793 270.648 137.703 271.684 139.705 271.684ZM148.583 273H147.071V265.86H144.775V264.782H145.223C146.259 264.782 146.847 264.516 147.253 263.62H148.583V273ZM154.001 273.14C151.663 273.14 150.053 271.978 150.053 270.074V269.962H151.705V270.074C151.705 271.068 152.335 271.712 154.001 271.712C156.045 271.712 156.801 270.732 156.801 268.478V267.736H156.675C156.325 268.688 155.163 269.43 153.385 269.43C151.075 269.43 149.759 268.38 149.759 266.518C149.759 264.67 151.215 263.48 153.847 263.48C157.053 263.48 158.397 264.908 158.397 268.282C158.397 271.334 156.829 273.14 154.001 273.14ZM153.903 268.352C155.737 268.352 156.619 267.722 156.619 266.616C156.619 265.496 155.779 264.922 153.917 264.922C152.055 264.922 151.341 265.482 151.341 266.63C151.341 267.792 152.041 268.352 153.903 268.352Z" fill="#8AA6AA"/>
<path d="M204.33 273H196.476V272.006C196.476 270.27 197.162 269.402 199.094 268.744L201.334 267.974C202.454 267.568 202.846 267.19 202.846 266.364C202.846 265.37 202.202 264.866 200.522 264.866C198.646 264.866 197.946 265.524 197.946 266.756V266.924H196.462V266.784C196.462 265.048 197.652 263.48 200.578 263.48C203.238 263.48 204.358 264.74 204.358 266.392C204.358 267.932 203.364 268.744 201.712 269.248L199.738 269.85C198.478 270.284 198.044 270.732 198.044 271.796L200.312 271.642H204.33V273ZM209.705 273.14C206.877 273.14 205.197 271.292 205.197 268.31C205.197 265.342 206.877 263.48 209.705 263.48C212.533 263.48 214.213 265.342 214.213 268.31C214.213 271.292 212.533 273.14 209.705 273.14ZM209.705 271.684C211.707 271.684 212.603 270.648 212.603 268.31C212.603 265.972 211.707 264.936 209.705 264.936C207.703 264.936 206.793 265.972 206.793 268.31C206.793 270.648 207.703 271.684 209.705 271.684ZM222.965 273H215.111V272.006C215.111 270.27 215.797 269.402 217.729 268.744L219.969 267.974C221.089 267.568 221.481 267.19 221.481 266.364C221.481 265.37 220.837 264.866 219.157 264.866C217.281 264.866 216.581 265.524 216.581 266.756V266.924H215.097V266.784C215.097 265.048 216.287 263.48 219.213 263.48C221.873 263.48 222.993 264.74 222.993 266.392C222.993 267.932 221.999 268.744 220.347 269.248L218.373 269.85C217.113 270.284 216.679 270.732 216.679 271.796L218.947 271.642H222.965V273ZM228.34 273.14C225.512 273.14 223.832 271.292 223.832 268.31C223.832 265.342 225.512 263.48 228.34 263.48C231.168 263.48 232.848 265.342 232.848 268.31C232.848 271.292 231.168 273.14 228.34 273.14ZM228.34 271.684C230.342 271.684 231.238 270.648 231.238 268.31C231.238 265.972 230.342 264.936 228.34 264.936C226.338 264.936 225.428 265.972 225.428 268.31C225.428 270.648 226.338 271.684 228.34 271.684Z" fill="white"/>
<path d="M275.33 273H267.476V272.006C267.476 270.27 268.162 269.402 270.094 268.744L272.334 267.974C273.454 267.568 273.846 267.19 273.846 266.364C273.846 265.37 273.202 264.866 271.522 264.866C269.646 264.866 268.946 265.524 268.946 266.756V266.924H267.462V266.784C267.462 265.048 268.652 263.48 271.578 263.48C274.238 263.48 275.358 264.74 275.358 266.392C275.358 267.932 274.364 268.744 272.712 269.248L270.738 269.85C269.478 270.284 269.044 270.732 269.044 271.796L271.312 271.642H275.33V273ZM280.705 273.14C277.877 273.14 276.197 271.292 276.197 268.31C276.197 265.342 277.877 263.48 280.705 263.48C283.533 263.48 285.213 265.342 285.213 268.31C285.213 271.292 283.533 273.14 280.705 273.14ZM280.705 271.684C282.707 271.684 283.603 270.648 283.603 268.31C283.603 265.972 282.707 264.936 280.705 264.936C278.703 264.936 277.793 265.972 277.793 268.31C277.793 270.648 278.703 271.684 280.705 271.684ZM293.965 273H286.111V272.006C286.111 270.27 286.797 269.402 288.729 268.744L290.969 267.974C292.089 267.568 292.481 267.19 292.481 266.364C292.481 265.37 291.837 264.866 290.157 264.866C288.281 264.866 287.581 265.524 287.581 266.756V266.924H286.097V266.784C286.097 265.048 287.287 263.48 290.213 263.48C292.873 263.48 293.993 264.74 293.993 266.392C293.993 267.932 292.999 268.744 291.347 269.248L289.373 269.85C288.113 270.284 287.679 270.732 287.679 271.796L289.947 271.642H293.965V273ZM298.36 273H296.848V265.86H294.552V264.782H295C296.036 264.782 296.624 264.516 297.03 263.62H298.36V273Z" fill="#8AA6AA"/>
<path d="M344.33 273H336.476V272.006C336.476 270.27 337.162 269.402 339.094 268.744L341.334 267.974C342.454 267.568 342.846 267.19 342.846 266.364C342.846 265.37 342.202 264.866 340.522 264.866C338.646 264.866 337.946 265.524 337.946 266.756V266.924H336.462V266.784C336.462 265.048 337.652 263.48 340.578 263.48C343.238 263.48 344.358 264.74 344.358 266.392C344.358 267.932 343.364 268.744 341.712 269.248L339.738 269.85C338.478 270.284 338.044 270.732 338.044 271.796L340.312 271.642H344.33V273ZM349.705 273.14C346.877 273.14 345.197 271.292 345.197 268.31C345.197 265.342 346.877 263.48 349.705 263.48C352.533 263.48 354.213 265.342 354.213 268.31C354.213 271.292 352.533 273.14 349.705 273.14ZM349.705 271.684C351.707 271.684 352.603 270.648 352.603 268.31C352.603 265.972 351.707 264.936 349.705 264.936C347.703 264.936 346.793 265.972 346.793 268.31C346.793 270.648 347.703 271.684 349.705 271.684ZM362.965 273H355.111V272.006C355.111 270.27 355.797 269.402 357.729 268.744L359.969 267.974C361.089 267.568 361.481 267.19 361.481 266.364C361.481 265.37 360.837 264.866 359.157 264.866C357.281 264.866 356.581 265.524 356.581 266.756V266.924H355.097V266.784C355.097 265.048 356.287 263.48 359.213 263.48C361.873 263.48 362.993 264.74 362.993 266.392C362.993 267.932 361.999 268.744 360.347 269.248L358.373 269.85C357.113 270.284 356.679 270.732 356.679 271.796L358.947 271.642H362.965V273ZM371.742 273H363.888V272.006C363.888 270.27 364.574 269.402 366.506 268.744L368.746 267.974C369.866 267.568 370.258 267.19 370.258 266.364C370.258 265.37 369.614 264.866 367.934 264.866C366.058 264.866 365.358 265.524 365.358 266.756V266.924H363.874V266.784C363.874 265.048 365.064 263.48 367.99 263.48C370.65 263.48 371.77 264.74 371.77 266.392C371.77 267.932 370.776 268.744 369.124 269.248L367.15 269.85C365.89 270.284 365.456 270.732 365.456 271.796L367.724 271.642H371.742V273Z" fill="#8AA6AA"/>
<path d="M418.33 273H410.476V272.006C410.476 270.27 411.162 269.402 413.094 268.744L415.334 267.974C416.454 267.568 416.846 267.19 416.846 266.364C416.846 265.37 416.202 264.866 414.522 264.866C412.646 264.866 411.946 265.524 411.946 266.756V266.924H410.462V266.784C410.462 265.048 411.652 263.48 414.578 263.48C417.238 263.48 418.358 264.74 418.358 266.392C418.358 267.932 417.364 268.744 415.712 269.248L413.738 269.85C412.478 270.284 412.044 270.732 412.044 271.796L414.312 271.642H418.33V273ZM423.705 273.14C420.877 273.14 419.197 271.292 419.197 268.31C419.197 265.342 420.877 263.48 423.705 263.48C426.533 263.48 428.213 265.342 428.213 268.31C428.213 271.292 426.533 273.14 423.705 273.14ZM423.705 271.684C425.707 271.684 426.603 270.648 426.603 268.31C426.603 265.972 425.707 264.936 423.705 264.936C421.703 264.936 420.793 265.972 420.793 268.31C420.793 270.648 421.703 271.684 423.705 271.684ZM432.583 273H431.071V265.86H428.775V264.782H429.223C430.259 264.782 430.847 264.516 431.253 263.62H432.583V273ZM437.903 273.14C435.257 273.14 433.605 272.258 433.605 270.438C433.605 269.15 434.501 268.38 435.887 268.086V267.974C434.599 267.778 433.871 267.008 433.871 265.93C433.871 264.46 435.243 263.48 437.903 263.48C440.563 263.48 441.935 264.46 441.935 265.93C441.935 267.008 441.221 267.778 439.905 267.974V268.086C441.361 268.38 442.201 269.15 442.201 270.438C442.201 272.258 440.521 273.14 437.903 273.14ZM437.903 267.61C439.723 267.61 440.437 267.176 440.437 266.266C440.437 265.398 439.863 264.908 437.903 264.908C435.957 264.908 435.383 265.398 435.383 266.266C435.383 267.176 436.097 267.61 437.903 267.61ZM437.903 271.712C439.933 271.712 440.675 271.25 440.675 270.158C440.675 269.136 439.933 268.646 437.903 268.646C435.873 268.646 435.131 269.136 435.131 270.158C435.131 271.25 435.859 271.712 437.903 271.712Z" fill="#8AA6AA"/>
</g>
<defs>
<filter id="filter0_f_501_121926" x="121" y="119" width="508" height="508" filterUnits="userSpaceOnUse" color-interpolation-filters="sRGB">
<feFlood flood-opacity="0" result="BackgroundImageFix"/>
<feBlend mode="normal" in="SourceGraphic" in2="BackgroundImageFix" result="shape"/>
<feGaussianBlur stdDeviation="46" result="effect1_foregroundBlur_501_121926"/>
</filter>
<clipPath id="clip0_501_121926">
<rect x="0.920898" y="0.0505371" width="424" height="422" rx="20" fill="white"/>
</clipPath>
</defs>
</svg>
