<svg width="34" height="34" viewBox="0 0 34 34" fill="none" xmlns="http://www.w3.org/2000/svg">
<g id="pill">
<path id="Vector" d="M5.97844 15.9942L15.9943 5.97835C19.3234 2.66335 24.6926 2.66335 28.0218 5.97835C31.3368 9.29335 31.3368 14.6767 28.0218 18.0058L18.0059 28.0217C14.6768 31.3367 9.29344 31.3367 5.97844 28.0217C2.66344 24.6925 2.66344 19.3233 5.97844 15.9942ZM7.9901 18.0058C6.5026 19.4792 6.00677 21.59 6.51677 23.4742L15.0026 15.0025L21.0093 21.0092L26.0101 15.9942C28.2343 13.7842 28.2343 10.2 26.0101 7.99001C23.8001 5.76585 20.2159 5.76585 18.0059 7.99001L7.9901 18.0058Z" fill="#8AA6AA"/>
</g>
</svg>
