<svg xmlns="http://www.w3.org/2000/svg" width="384" height="444" viewBox="0 0 384 444" fill="none">
  <path d="M312.625 0.90625V114.559L250.281 151.57V88.5823L219.109 108.054L146.375 151.57V88.5823L115.203 108.054L11.2969 170.398L0.90625 176.238V458.094H458.094V0.90625H312.625ZM354.188 42.4688H416.531V416.531H42.4688V198.972L104.812 161.961V224.949L135.984 205.477L208.719 161.961V224.949L239.891 205.477L343.797 143.133L354.188 137.294V42.4688ZM84.0312 250.281V291.844H125.594V250.281H84.0312ZM167.156 250.281V291.844H208.719V250.281H167.156ZM250.281 250.281V291.844H291.844V250.281H250.281ZM333.406 250.281V291.844H374.969V250.281H333.406ZM84.0312 333.406V374.969H125.594V333.406H84.0312ZM167.156 333.406V374.969H208.719V333.406H167.156ZM250.281 333.406V374.969H291.844V333.406H250.281ZM333.406 333.406V374.969H374.969V333.406H333.406Z" fill="#8AA6AA"/>
</svg>