<svg width="20" height="20" viewBox="0 0 20 20" fill="none" xmlns="http://www.w3.org/2000/svg">
<g clip-path="url(#clip0_1344_182)">
<path d="M20 10C20 4.47656 15.5234 0 10 0C4.47656 0 0 4.47656 0 10C0 14.9918 3.65469 19.1289 8.43828 19.8793V12.893H5.90117V10H8.43828V7.79727C8.43828 5.29297 9.92852 3.90703 12.2137 3.90703C13.3094 3.90703 14.4547 4.1043 14.4547 4.1043V6.56445H13.1945C11.9508 6.56445 11.5672 7.33711 11.5672 8.12617V10H14.3398L13.8961 12.893H11.5672V19.8793C16.3453 19.1289 20 14.9918 20 10Z" fill="white"/>
<path d="M13.89 12.8932L14.3342 10.0002H11.5615V8.12637C11.5615 7.3373 11.9506 6.56465 13.1889 6.56465H14.449V4.10449C14.449 4.10449 13.3037 3.90723 12.208 3.90723C9.92324 3.90723 8.43262 5.29355 8.43262 7.79746V10.0002H5.89551V12.8932H8.43262V19.8795C8.94238 19.9615 9.4627 20.0002 9.99434 20.0002C10.526 20.0002 11.0463 19.9564 11.5561 19.8795V12.8932H13.89Z" fill="#8AA6AA"/>
</g>
<defs>
<clipPath id="clip0_1344_182">
<rect width="20" height="20" fill="white"/>
</clipPath>
</defs>
</svg>
