<svg width="20" height="20" viewBox="0 0 20 20" fill="none" xmlns="http://www.w3.org/2000/svg">
<g clip-path="url(#clip0_1344_171)">
<path d="M10.0049 5.50781C7.1656 5.50781 4.87542 7.51172 4.87542 9.99609C4.87542 12.4805 7.1656 14.4844 10.0049 14.4844C12.8442 14.4844 15.1343 12.4805 15.1343 9.99609C15.1343 7.51172 12.8442 5.50781 10.0049 5.50781ZM10.0049 12.9141C8.17006 12.9141 6.67006 11.6055 6.67006 9.99609C6.67006 8.38672 8.1656 7.07812 10.0049 7.07812C11.8442 7.07812 13.3397 8.38672 13.3397 9.99609C13.3397 11.6055 11.8397 12.9141 10.0049 12.9141ZM16.5406 5.32422C16.5406 5.90625 16.0049 6.37109 15.3442 6.37109C14.679 6.37109 14.1477 5.90234 14.1477 5.32422C14.1477 4.74609 14.6835 4.27734 15.3442 4.27734C16.0049 4.27734 16.5406 4.74609 16.5406 5.32422ZM19.9379 6.38672C19.862 4.98438 19.496 3.74219 18.3218 2.71875C17.1522 1.69531 15.7326 1.375 14.1299 1.30469C12.4781 1.22266 7.5272 1.22266 5.87542 1.30469C4.2772 1.37109 2.85756 1.69141 1.68345 2.71484C0.509347 3.73828 0.14774 4.98047 0.0673828 6.38281C-0.0263672 7.82812 -0.0263672 12.1602 0.0673828 13.6055C0.143276 15.0078 0.509347 16.25 1.68345 17.2734C2.85756 18.2969 4.27274 18.6172 5.87542 18.6875C7.5272 18.7695 12.4781 18.7695 14.1299 18.6875C15.7326 18.6211 17.1522 18.3008 18.3218 17.2734C19.4915 16.25 19.8576 15.0078 19.9379 13.6055C20.0317 12.1602 20.0317 7.83203 19.9379 6.38672ZM17.804 15.1562C17.4558 15.9219 16.7817 16.5117 15.9022 16.8203C14.5852 17.2773 11.4602 17.1719 10.0049 17.1719C8.54953 17.1719 5.42006 17.2734 4.10756 16.8203C3.23256 16.5156 2.55845 15.9258 2.20578 15.1562C1.68345 14.0039 1.80399 11.2695 1.80399 9.99609C1.80399 8.72266 1.68792 5.98438 2.20578 4.83594C2.55399 4.07031 3.2281 3.48047 4.10756 3.17187C5.42453 2.71484 8.54953 2.82031 10.0049 2.82031C11.4602 2.82031 14.5897 2.71875 15.9022 3.17187C16.7772 3.47656 17.4513 4.06641 17.804 4.83594C18.3263 5.98828 18.2058 8.72266 18.2058 9.99609C18.2058 11.2695 18.3263 14.0078 17.804 15.1562Z" fill="white"/>
</g>
<defs>
<clipPath id="clip0_1344_171">
<rect width="20" height="20" fill="white"/>
</clipPath>
</defs>
</svg>
