<svg width="20" height="20" viewBox="0 0 20 20" fill="none" xmlns="http://www.w3.org/2000/svg">
<g clip-path="url(#clip0_1344_160)">
<path d="M20.0001 8.19961C18.0346 8.20372 16.1174 7.6674 14.5193 6.66641V13.6477C14.5187 14.9407 14.067 16.2027 13.2246 17.265C12.3822 18.3274 11.1893 19.1393 9.80523 19.5924C8.4212 20.0455 6.91207 20.118 5.47965 19.8003C4.04722 19.4826 2.75978 18.7899 1.78947 17.8147C0.819152 16.8395 0.212218 15.6283 0.0498202 14.3431C-0.112578 13.058 0.177301 11.76 0.880695 10.6229C1.58409 9.48579 2.66747 8.56366 3.98598 7.97983C5.30449 7.39601 6.79527 7.17832 8.25899 7.35586V10.8672C7.58919 10.6828 6.86994 10.6884 6.20396 10.8831C5.53798 11.0777 4.95933 11.4515 4.55064 11.9511C4.14194 12.4507 3.92411 13.0505 3.92824 13.6649C3.93238 14.2793 4.15827 14.8768 4.57366 15.3721C4.98906 15.8675 5.5727 16.2353 6.24126 16.4231C6.90981 16.6109 7.62908 16.609 8.29635 16.4178C8.96363 16.2265 9.54478 15.8557 9.95681 15.3582C10.3689 14.8607 10.5907 14.262 10.5907 13.6477V0H14.5193C14.5165 0.290289 14.5443 0.580182 14.6023 0.866016C14.7388 1.50409 15.0227 2.1111 15.4365 2.6499C15.8503 3.1887 16.3854 3.64796 17.009 3.99961C17.8962 4.51293 18.9364 4.78652 20.0001 4.78633V8.19961Z" fill="white"/>
</g>
<defs>
<clipPath id="clip0_1344_160">
<rect width="20" height="20" fill="white"/>
</clipPath>
</defs>
</svg>
